{
.appVersion = "3151";
.formatVersion = 3;
DisplayStrings = (
"",
"ç",
"/t_t",
"rŗ",
"Ĺ",
"ł",
"Ł",
"'ꞌt",
"'ꞌꞋtR",
"ꞌꞋR",
"ħ",
"Ħ",
"Þ",
"þ",
"đ",
"ẞ",
"ß",
"β",
"́̈΅",
"΅υΰ",
"̈ϋ",
"ιώ",
"æ",
"/f_f_l",
"״",
"\"tjaoa‚",
"“"
);
axes = (
{
name = Weight;
tag = wght;
}
);
classes = (
{
automatic = 1;
code = "A Aacute Abreve Acircumflex Adieresis Agrave Amacron Aogonek Aring Atilde AE B C Cacute Ccaron Ccedilla Ccircumflex Cdotaccent D Eth Dcaron Dcroat E Eacute Ecaron Ecircumflex Edieresis Edotaccent Egrave Emacron Eogonek Etilde Schwa F G Gbreve Gcircumflex Gcommaaccent Gdotaccent Gmacron H Hbar Hcircumflex I IJ Iacute Icircumflex Idieresis Idotaccent Igrave Imacron Iogonek Itilde J Jacute Jcircumflex K Kcommaaccent L Lacute Lcaron Lcommaaccent Lslash M N Nacute Ncaron Ncommaaccent Ntilde O Oacute Ocircumflex Odieresis Ograve Ohungarumlaut Omacron Oslash Otilde OE P Thorn Q R Racute Rcaron Rcommaaccent S Sacute Saltillo Scaron Scedilla Scircumflex Scommaaccent Germandbls T Tcaron Tcedilla Tcommaaccent U Uacute Ubreve Ucircumflex Udieresis Ugrave Uhungarumlaut Umacron Uogonek Uring Utilde V W Wacute Wcircumflex Wdieresis Wgrave X Y Yacute Ycircumflex Ydieresis Ygrave Ytilde Z Zacute Zcaron Zdotaccent Lslash.001 Lcommaaccent.loclMAH Ncommaaccent.loclMAH A-cy Be-cy Ve-cy Ge-cy Geupturn-cy De-cy Ie-cy Iegrave-cy Io-cy Zhe-cy Ze-cy Ii-cy Iishort-cy Iigrave-cy Ka-cy El-cy Em-cy En-cy O-cy Pe-cy Er-cy Es-cy Te-cy U-cy Ushort-cy Ef-cy Ha-cy Che-cy Tse-cy Sha-cy Shcha-cy Softsign-cy Yeru-cy Hardsign-cy E-cy Ereversed-cy I-cy Yi-cy Yu-cy Ya-cy Alpha Beta Gamma Delta Epsilon Zeta Eta Theta Iota Kappa Lambda Mu Nu Xi Omicron Pi Rho Sigma Tau Upsilon Phi Chi Psi Omega Alphatonos Epsilontonos Etatonos Iotatonos Omicrontonos Upsilontonos Omegatonos Iotadieresis Upsilondieresis KaiSymbol";
name = Uppercase;
}
);
date = "2023-11-27 17:11:44 +0000";
familyName = "Arcticons Sans";
featurePrefixes = (
{
automatic = 1;
code = "languagesystem DFLT dflt;
languagesystem DFLT MAH;


glyphs = (
{
glyphname = A;
kernLeft = A;
kernRight = A;
lastChange = "2023-12-17 13:22:24 +0000";
layers = (
{
anchors = (
{
name = bottom;
pos = (366,0);
},
{
name = ogonek;
pos = (682,50);
},
{
name = top;
pos = (366,850);
}
);
layerId = m01;
shapes = (
{
attr = {
lineCapEnd = 1;
lineCapStart = 1;
strokeWidth = 100;
};
closed = 0;
nodes = (
(543,265,l),
(189,265,l)
);
},
{
attr = {
lineCapEnd = 1;
lineCapStart = 1;
strokeWidth = 101.594;
};
closed = 0;
nodes = (
(101,0,l),
(366,800,l)
);
},
{
attr = {
lineCapEnd = 1;
lineCapStart = 1;
strokeWidth = 101.594;
};
closed = 0;
nodes = (
(631,0,l),
(366,800,l)
);
}
);
width = 732;
}
);
unicode = 65;
},
{
glyphname = AE;
lastChange = "2023-12-02 13:09:20 +0000";
layers = (
{
layerId = m01;
shapes = (
{
attr = {
lineCapEnd = 1;
lineCapStart = 1;
strokeWidth = 100;
};
closed = 0;
nodes = (
(621,400,l),
(882,400,l)
);
},
{
attr = {
lineCapEnd = 1;
lineCapStart = 1;
strokeWidth = 100;
};
closed = 0;
nodes = (
(1021,0,l),
(621,0,l)
);
},
{
attr = {
lineCapEnd = 1;
lineCapStart = 1;
strokeWidth = 100;
};
closed = 0;
nodes = (
(621,0,l),
(621,800,l)
);
},
{
attr = {
lineCapEnd = 1;
lineCapStart = 1;
strokeWidth = 101.594;
};
closed = 0;
nodes = (
(91,0,l),
(446,779,ls),
(452,793,o),
(465,800,o),
(479,800,cs),
(1021,800,l)
);
},
{
attr = {
lineCapEnd = 1;
lineCapStart = 1;
strokeWidth = 100;
};
closed = 0;
nodes = (
(218,277,l),
(621,277,l)
);
}
);
width = 1112;
}
);
unicode = 198;
},
{
glyphname = B;
kernLeft = uppdercaseStraight;
lastChange = "2023-12-17 13:34:38 +0000";
layers = (
{
anchors = (
{
name = bottom;
pos = (365,0);
},
{
name = center;
pos = (365,425);
},
{
name = top;
pos = (365,850);
}
);
layerId = m01;
shapes = (
{
attr = {
lineCapEnd = 1;
lineCapStart = 1;
strokeWidth = 100;
};
closed = 0;
nodes = (
(100,800,l),
(430,800,l),
(541,800,o),
(630,710,o),
(630,600,c),
(630,490,o),
(541,400,o),
(430,400,c),
(430,400,l)
);
},
{
attr = {
lineCapEnd = 1;
lineCapStart = 1;
strokeWidth = 100;
};
closed = 0;
nodes = (
(430,400,l),
(100,400,l)
);
},
{
attr = {
lineCapEnd = 1;
lineCapStart = 1;
strokeWidth = 100;
};
closed = 0;
nodes = (
(100,0,l),
(100,800,l)
);
},
{
attr = {
lineCapEnd = 1;
lineCapStart = 1;
strokeWidth = 100;
};
closed = 0;
nodes = (
(430,400,l),
(541,400,o),
(630,310,o),
(630,200,c),
(630,90,o),
(541,0,o),
(430,0,c),
(100,0,l)
);
}
);
width = 730;
}
);
unicode = 66;
},
{
glyphname = C;
kernLeft = uppercaseRound;
kernRight = uppercaseRound;
lastChange = "2023-12-17 13:34:40 +0000";
layers = (
{
anchors = (
{
name = bottom;
pos = (365,0);
},
{
name = top;
pos = (365,850);
}
);
layerId = m01;
shapes = (
{
attr = {
lineCapEnd = 1;
lineCapStart = 1;
strokeWidth = 100;
};
closed = 0;
nodes = (
(630,268,l),
(630,265,l),
(630,119,o),
(512,0,o),
(365,0,c),
(219,0,o),
(100,119,o),
(100,265,c),
(100,535,l),
(100,681,o),
(219,800,o),
(365,800,c),
(512,800,o),
(630,681,o),
(630,535,c),
(630,532,l)
);
}
);
width = 730;
}
);
unicode = 67;
},
{
glyphname = D;
kernLeft = uppdercaseStraight;
kernRight = uppercaseRound;
lastChange = "2023-12-17 13:34:51 +0000";
layers = (
{
anchors = (
{
name = bottom;
pos = (365,0);
},
{
name = center;
pos = (365,425);
},
{
name = top;
pos = (280,850);
}
);
layerId = m01;
shapes = (
{
attr = {
lineCapEnd = 1;
lineCapStart = 1;
strokeWidth = 100;
};
closed = 0;
nodes = (
(100,800,l),
(280,800,l),
(473,800,o),
(630,644,o),
(630,450,c),
(630,350,l),
(630,157,o),
(473,0,o),
(280,0,c),
(100,0,l)
);
},
{
attr = {
lineCapEnd = 1;
lineCapStart = 1;
strokeWidth = 100;
};
closed = 0;
nodes = (
(100,0,l),
(100,800,l)
);
}
);
width = 730;
}
);
unicode = 68;
},
{
glyphname = Eth;
kernRight = uppercaseRound;
lastChange = "2023-12-12 19:11:46 +0000";
layers = (
{
layerId = m01;
shapes = (
{
attr = {
lineCapEnd = 1;
lineCapStart = 1;
strokeWidth = 100;
};
closed = 0;
nodes = (
(100,400,l),
(400,400,l)
);
},
{
pos = (130,0);
ref = D;
}
);
width = 860;
}
);
metricRight = D;
unicode = 208;
},
{
glyphname = E;
kernLeft = uppdercaseStraight;
lastChange = "2023-12-17 13:22:48 +0000";
layers = (
{
anchors = (
{
name = bottom;
pos = (300,0);
},
{
name = ogonek;
pos = (550,50);
},
{
name = top;
pos = (300,850);
},
{
name = topleft;
pos = (20,850);
}
);
layerId = m01;
shapes = (
{
attr = {
lineCapEnd = 1;
lineCapStart = 1;
strokeWidth = 100;
};
closed = 0;
nodes = (
(100,400,l),
(361,400,l)
);
},
{
attr = {
lineCapEnd = 1;
lineCapStart = 1;
strokeWidth = 100;
};
closed = 0;
nodes = (
(100,800,l),
(500,800,l)
);
},
{
attr = {
lineCapEnd = 1;
lineCapStart = 1;
strokeWidth = 100;
};
closed = 0;
nodes = (
(500,0,l),
(100,0,l)
);
},
{
attr = {
lineCapEnd = 1;
lineCapStart = 1;
strokeWidth = 100;
};
closed = 0;
nodes = (
(100,0,l),
(100,800,l)
);
}
);
width = 600;
}
);
unicode = 69;
},
{
glyphname = Schwa;
kernLeft = uppercaseRound;
kernRight = uppercaseRound;
lastChange = "2023-12-12 19:11:55 +0000";
layers = (
{
layerId = m01;
shapes = (
{
attr = {
lineCapEnd = 1;
lineCapStart = 1;
strokeWidth = 100;
};
closed = 0;
nodes = (
(100,400,l),
(703,400,l)
);
},
{
attr = {
lineCapEnd = 1;
lineCapStart = 1;
strokeWidth = 100;
};
closed = 0;
nodes = (
(139,648,l),
(191,738,o),
(289,800,o),
(402,800,c),
(568,800,o),
(703,664,o),
(703,498,c),
(703,301,l),
(703,135,o),
(568,0,o),
(402,0,c),
(235,0,o),
(100,135,o),
(100,301,c),
(100,400,l)
);
}
);
width = 803;
}
);
unicode = 399;
},
{
glyphname = F;
kernLeft = uppdercaseStraight;
lastChange = "2023-12-17 13:35:08 +0000";
layers = (
{
anchors = (
{
name = bottom;
pos = (300,0);
},
{
name = top;
pos = (300,850);
}
);
layerId = m01;
shapes = (
{
attr = {
lineCapEnd = 1;
lineCapStart = 1;
strokeWidth = 100;
};
closed = 0;
nodes = (
(100,400,l),
(360,400,l)
);
},
{
attr = {
lineCapEnd = 1;
lineCapStart = 1;
strokeWidth = 100;
};
closed = 0;
nodes = (
(100,0,l),
(100,800,l)
);
},
{
attr = {
lineCapEnd = 1;
lineCapStart = 1;
strokeWidth = 100;
};
closed = 0;
nodes = (
(100,800,l),
(500,800,l)
);
}
);
width = 600;
}
);
unicode = 70;
},
{
glyphname = G;
kernLeft = uppercaseRound;
kernRight = uppercaseRound;
lastChange = "2023-12-17 13:35:11 +0000";
layers = (
{
anchors = (
{
name = bottom;
pos = (365,0);
},
{
name = top;
pos = (365,850);
}
);
layerId = m01;
shapes = (
{
attr = {
lineCapEnd = 1;
lineCapStart = 1;
strokeWidth = 100;
};
closed = 0;
nodes = (
(630,265,l),
(630,119,o),
(511,0,o),
(365,0,c),
(218,0,o),
(100,119,o),
(100,265,c),
(100,535,l),
(100,682,o),
(218,800,o),
(365,800,c),
(511,800,o),
(630,682,o),
(630,535,c)
);
},
{
attr = {
lineCapEnd = 1;
lineCapStart = 1;
strokeWidth = 100;
};
closed = 0;
nodes = (
(365,265,l),
(630,265,l)
);
}
);
width = 730;
}
);
unicode = 71;
},
{
glyphname = H;
kernLeft = uppdercaseStraight;
kernRight = uppdercaseStraight;
lastChange = "2023-12-17 13:35:15 +0000";
layers = (
{
anchors = (
{
name = bottom;
pos = (355,0);
},
{
name = center;
pos = (355,425);
},
{
name = top;
pos = (355,850);
},
{
name = topleft;
pos = (20,850);
}
);
layerId = m01;
shapes = (
{
attr = {
lineCapEnd = 1;
lineCapStart = 1;
strokeWidth = 100;
};
closed = 0;
nodes = (
(100,800,l),
(100,0,l)
);
},
{
attr = {
lineCapEnd = 1;
lineCapStart = 1;
strokeWidth = 100;
};
closed = 0;
nodes = (
(610,800,l),
(610,0,l)
);
},
{
attr = {
lineCapEnd = 1;
lineCapStart = 1;
strokeWidth = 100;
};
closed = 0;
nodes = (
(100,402,l),
(610,402,l)
);
}
);
width = 710;
}
);
unicode = 72;
},
{
glyphname = Hbar;
lastChange = "2023-12-17 15:42:17 +0000";
layers = (
{
layerId = m01;
shapes = (
{
ref = H;
},
{
attr = {
lineCapEnd = "1";
lineCapStart = "1";
strokeHeight = 100;
strokeWidth = 100;
};
closed = 0;
nodes = (
(20,630,l),
(690,630,l)
);
}
);
width = 710;
}
);
unicode = 294;
},
{
glyphname = I;
kernLeft = uppdercaseStraight;
lastChange = "2023-12-17 13:23:11 +0000";
layers = (
{
anchors = (
{
name = bottom;
pos = (110,0);
},
{
name = ogonek;
pos = (160,50);
},
{
name = top;
pos = (110,850);
},
{
name = topleft;
pos = (20,850);
}
);
layerId = m01;
shapes = (
{
attr = {
lineCapEnd = 1;
lineCapStart = 1;
strokeWidth = 100;
};
closed = 0;
nodes = (
(110,800,l),
(110,0,l)
);
}
);
width = 220;
}
);
unicode = 73;
},
{
glyphname = J;
lastChange = "2023-12-17 13:35:30 +0000";
layers = (
{
anchors = (
{
name = bottom;
pos = (300,0);
},
{
name = top;
pos = (500,850);
}
);
layerId = m01;
shapes = (
{
attr = {
lineCapEnd = 1;
lineCapStart = 1;
strokeWidth = 100;
};
closed = 0;
nodes = (
(100,266,l),
(100,200,l),
(100,90,o),
(190,0,o),
(300,0,c),
(411,0,o),
(500,90,o),
(500,200,c),
(500,800,l)
);
}
);
width = 600;
}
);
unicode = 74;
},
{
glyphname = K;
kernLeft = uppdercaseStraight;
lastChange = "2023-12-17 13:35:36 +0000";
layers = (
{
anchors = (
{
name = bottom;
pos = (315,0);
},
{
name = top;
pos = (315,850);
}
);
layerId = m01;
shapes = (
{
attr = {
lineCapEnd = 1;
lineCapStart = 1;
strokeWidth = 100;
};
closed = 0;
nodes = (
(100,800,l),
(100,0,l)
);
},
{
attr = {
lineCapEnd = 1;
lineCapStart = 1;
strokeWidth = 100;
};
closed = 0;
nodes = (
(100,278,l),
(530,797,l)
);
},
{
attr = {
lineCapEnd = 1;
lineCapStart = 1;
strokeWidth = 100;
};
closed = 0;
nodes = (
(530,0,l),
(201,400,l)
);
}
);
width = 630;
}
);
unicode = 75;
},
{
glyphname = L;
kernLeft = uppdercaseStraight;
lastChange = "2023-12-17 13:35:51 +0000";
layers = (
{
anchors = (
{
name = bottom;
pos = (300,0);
},
{
name = center;
pos = (300,425);
},
{
name = top;
pos = (300,850);
},
{
name = topright;
pos = (253,580);
}
);
layerId = m01;
shapes = (
{
attr = {
lineCapEnd = 1;
lineCapStart = 1;
strokeWidth = 100;
};
closed = 0;
nodes = (
(100,800,l),
(100,0,l)
);
},
{
attr = {
lineCapEnd = 1;
lineCapStart = 1;
strokeWidth = 100;
};
closed = 0;
nodes = (
(100,0,l),
(500,0,l)
);
}
);
width = 600;
}
);
unicode = 76;
},
{
glyphname = Lslash;
lastChange = "2023-12-17 15:38:43 +0000";
layers = (
{
layerId = m01;
shapes = (
{
ref = L;
},
{
attr = {
lineCapEnd = "1";
lineCapStart = "1";
strokeHeight = 100;
strokeWidth = 100;
};
closed = 0;
nodes = (
(280,530,l),
(0,400,l)
);
}
);
width = 600;
}
);
unicode = 321;
},
{
glyphname = M;
kernLeft = uppdercaseStraight;
kernRight = uppdercaseStraight;
lastChange = "2023-12-17 13:36:00 +0000";
layers = (
{
anchors = (
{
name = bottom;
pos = (500,0);
},
{
name = top;
pos = (500,850);
}
);
layerId = m01;
shapes = (
{
attr = {
lineCapEnd = 1;
lineCapStart = 1;
strokeWidth = 100;
};
closed = 0;
nodes = (
(500,0,l),
(900,799,l)
);
},
{
attr = {
lineCapEnd = 1;
lineCapStart = 1;
strokeWidth = 100;
};
closed = 0;
nodes = (
(100,1,l),
(100,800,l)
);
},
{
attr = {
lineCapEnd = 1;
lineCapStart = 1;
strokeWidth = 100;
};
closed = 0;
nodes = (
(900,799,l),
(900,0,l)
);
},
{
attr = {
lineCapEnd = 1;
lineCapStart = 1;
strokeWidth = 100;
};
closed = 0;
nodes = (
(100,800,l),
(500,0,l)
);
}
);
width = 1000;
}
);
unicode = 77;
},
{
glyphname = N;
kernLeft = uppdercaseStraight;
kernRight = uppdercaseStraight;
lastChange = "2023-12-17 13:36:04 +0000";
layers = (
{
anchors = (
{
name = bottom;
pos = (365,0);
},
{
name = top;
pos = (365,850);
}
);
layerId = m01;
shapes = (
{
attr = {
lineCapEnd = 1;
lineCapStart = 1;
strokeWidth = 100;
};
closed = 0;
nodes = (
(100,800,l),
(630,0,l)
);
},
{
attr = {
lineCapEnd = 1;
lineCapStart = 1;
strokeWidth = 100;
};
closed = 0;
nodes = (
(630,0,l),
(630,800,l)
);
},
{
attr = {
lineCapEnd = 1;
lineCapStart = 1;
strokeWidth = 100;
};
closed = 0;
nodes = (
(100,0,l),
(100,800,l)
);
}
);
width = 730;
}
);
unicode = 78;
},
{
glyphname = O;
kernLeft = uppercaseRound;
kernRight = uppercaseRound;
lastChange = "2023-12-17 13:25:06 +0000";
layers = (
{
anchors = (
{
name = bottom;
pos = (365,0);
},
{
name = center;
pos = (365,425);
},
{
name = ogonek;
pos = (528,75);
},
{
name = top;
pos = (365,850);
},
{
name = topleft;
pos = (20,850);
},
{
name = topright;
pos = (710,850);
}
);
layerId = m01;
shapes = (
{
attr = {
strokeWidth = 100;
};
closed = 1;
nodes = (
(630,119,o),
(511,0,o),
(365,0,c),
(219,0,o),
(100,119,o),
(100,265,c),
(100,535,l),
(100,681,o),
(219,800,o),
(365,800,c),
(511,800,o),
(630,681,o),
(630,535,c),
(630,265,l)
);
}
);
width = 730;
}
);
unicode = 79;
},
{
glyphname = Oslash;
kernLeft = uppercaseRound;
kernRight = uppercaseRound;
lastChange = "2023-12-12 19:12:05 +0000";
layers = (
{
layerId = m01;
shapes = (
{
ref = O;
},
{
attr = {
lineCapEnd = 1;
lineCapStart = 1;
strokeWidth = 100;
};
closed = 0;
nodes = (
(100,0,l),
(630,800,l)
);
}
);
width = 730;
}
);
metricLeft = O;
metricRight = O;
unicode = 216;
},
{
glyphname = OE;
kernLeft = uppercaseRound;
lastChange = "2023-12-12 19:12:08 +0000";
layers = (
{
layerId = m01;
shapes = (
{
attr = {
strokeWidth = 100;
};
closed = 1;
nodes = (
(630,119,o),
(512,0,o),
(365,0,c),
(219,0,o),
(100,119,o),
(100,265,c),
(100,535,l),
(100,681,o),
(219,800,o),
(365,800,c),
(512,800,o),
(630,681,o),
(630,535,c),
(630,265,l)
);
},
{
attr = {
lineCapEnd = 1;
lineCapStart = 1;
strokeWidth = 100;
};
closed = 0;
nodes = (
(630,400,l),
(891,400,l)
);
},
{
attr = {
lineCapEnd = 1;
lineCapStart = 1;
strokeWidth = 100;
};
closed = 0;
nodes = (
(630,800,l),
(1030,800,l)
);
},
{
attr = {
lineCapEnd = 1;
lineCapStart = 1;
strokeWidth = 100;
};
closed = 0;
nodes = (
(1030,0,l),
(630,0,l)
);
},
{
attr = {
lineCapEnd = 1;
lineCapStart = 1;
strokeWidth = 100;
};
closed = 0;
nodes = (
(630,0,l),
(630,800,l)
);
}
);
width = 1130;
}
);
unicode = 338;
},
{
glyphname = P;
kernLeft = uppdercaseStraight;
lastChange = "2023-12-17 13:36:15 +0000";
layers = (
{
anchors = (
{
name = bottom;
pos = (365,0);
},
{
name = top;
pos = (365,850);
}
);
layerId = m01;
shapes = (
{
attr = {
lineCapEnd = 1;
lineCapStart = 1;
strokeWidth = 100;
};
closed = 0;
nodes = (
(100,0,l),
(100,800,l)
);
},
{
attr = {
lineCapEnd = 1;
lineCapStart = 1;
strokeWidth = 100;
};
closed = 0;
nodes = (
(100,270,l),
(365,270,l),
(511,270,o),
(630,389,o),
(630,535,c),
(630,681,o),
(511,800,o),
(365,800,c),
(100,800,l)
);
}
);
width = 730;
}
);
unicode = 80;
},
{
glyphname = Thorn;
lastChange = "2023-12-17 15:44:40 +0000";
layers = (
{
layerId = m01;
shapes = (
{
ref = P;
},
{
attr = {
lineCapEnd = 1;
lineCapStart = 1;
strokeHeight = 100;
strokeWidth = 100;
};
closed = 0;
nodes = (
(100,800,l),
(100,965,l)
);
}
);
width = 730;
}
);
unicode = 222;
},
{
glyphname = Q;
kernLeft = uppercaseRound;
lastChange = "2023-12-17 13:36:17 +0000";
layers = (
{
anchors = (
{
name = bottom;
pos = (365,0);
},
{
name = top;
pos = (365,850);
}
);
layerId = m01;
shapes = (
{
attr = {
lineCapEnd = 1;
lineCapStart = 1;
strokeWidth = 100;
};
closed = 0;
nodes = (
(630,0,l),
(365,262,l)
);
},
{
attr = {
strokeWidth = 100;
};
closed = 1;
nodes = (
(630,119,o),
(511,0,o),
(365,0,c),
(219,0,o),
(100,119,o),
(100,265,c),
(100,535,l),
(100,681,o),
(219,800,o),
(365,800,c),
(511,800,o),
(630,681,o),
(630,535,c),
(630,265,l)
);
}
);
width = 730;
}
);
unicode = 81;
},
{
glyphname = R;
kernLeft = uppdercaseStraight;
lastChange = "2023-12-17 13:36:19 +0000";
layers = (
{
anchors = (
{
name = bottom;
pos = (365,0);
},
{
name = top;
pos = (365,850);
}
);
layerId = m01;
shapes = (
{
attr = {
lineCapEnd = 1;
lineCapStart = 1;
strokeWidth = 100;
};
closed = 0;
nodes = (
(355,270,l),
(624,0,l)
);
},
{
attr = {
lineCapEnd = 1;
lineCapStart = 1;
strokeWidth = 100;
};
closed = 0;
nodes = (
(100,0,l),
(100,800,l)
);
},
{
attr = {
lineCapEnd = 1;
lineCapStart = 1;
strokeWidth = 100;
};
closed = 0;
nodes = (
(100,270,l),
(365,270,l),
(511,270,o),
(630,389,o),
(630,535,c),
(630,681,o),
(511,800,o),
(365,800,c),
(100,800,l)
);
}
);
width = 730;
}
);
unicode = 82;
},
{
glyphname = S;
lastChange = "2023-12-17 13:14:56 +0000";
layers = (
{
anchors = (
{
name = bottom;
pos = (365,0);
},
{
name = top;
pos = (365,850);
}
);
layerId = m01;
shapes = (
{
attr = {
lineCapEnd = 1;
lineCapStart = 1;
strokeWidth = 100;
};
closed = 0;
nodes = (
(116,88,l),
(165,24,o),
(226,0,o),
(312,0,c),
(430,0,l),
(541,0,o),
(630,89,o),
(630,200,c),
(630,200,l),
(630,311,o),
(541,400,o),
(430,400,c),
(300,400,l),
(189,400,o),
(100,489,o),
(100,600,c),
(100,600,l),
(100,710,o),
(190,800,o),
(300,800,c),
(418,800,l),
(504,800,o),
(565,776,o),
(614,712,c)
);
}
);
width = 730;
}
);
unicode = 83;
},
{
glyphname = Germandbls;
lastChange = "2023-12-17 15:57:36 +0000";
layers = (
{
layerId = m01;
shapes = (
{
attr = {
lineCapEnd = 1;
lineCapStart = 1;
strokeWidth = 100;
};
closed = 0;
nodes = (
(100,800,l),
(630,800,l)
);
},
{
attr = {
lineCapEnd = 1;
lineCapStart = 1;
strokeWidth = 100;
};
closed = 0;
nodes = (
(415,530,l),
(561,530,o),
(680,411,o),
(680,265,c),
(680,119,o),
(561,0,o),
(415,0,c),
(379,0,o),
(344,7,o),
(313,20,c)
);
},
{
attr = {
lineCapEnd = 1;
lineCapStart = 1;
strokeWidth = 100;
};
closed = 0;
nodes = (
(630,800,l),
(415,530,l)
);
},
{
attr = {
lineCapEnd = 1;
lineCapStart = 1;
strokeWidth = 100;
};
closed = 0;
nodes = (
(100,0,l),
(100,800,l)
);
}
);
width = 780;
}
);
unicode = 7838;
},
{
glyphname = T;
lastChange = "2023-12-17 13:36:29 +0000";
layers = (
{
anchors = (
{
name = bottom;
pos = (365,0);
},
{
name = center;
pos = (365,425);
},
{
name = top;
pos = (365,850);
}
);
layerId = m01;
shapes = (
{
attr = {
lineCapEnd = 1;
lineCapStart = 1;
strokeWidth = 100;
};
closed = 0;
nodes = (
(100,800,l),
(630,800,l)
);
},
{
attr = {
lineCapEnd = 1;
lineCapStart = 1;
strokeWidth = 100;
};
closed = 0;
nodes = (
(365,0,l),
(365,800,l)
);
}
);
width = 730;
}
);
unicode = 84;
},
{
glyphname = U;
lastChange = "2023-12-17 13:15:44 +0000";
layers = (
{
anchors = (
{
name = bottom;
pos = (365,0);
},
{
name = ogonek;
pos = (528,73);
},
{
name = top;
pos = (365,850);
},
{
name = topright;
pos = (710,850);
}
);
layerId = m01;
shapes = (
{
attr = {
lineCapEnd = 1;
lineCapStart = 1;
strokeWidth = 100;
};
closed = 0;
nodes = (
(100,800,l),
(100,265,l),
(100,119,o),
(219,0,o),
(365,0,c),
(511,0,o),
(630,119,o),
(630,265,c),
(630,800,l)
);
}
);
width = 730;
}
);
unicode = 85;
},
{
glyphname = Uogonek;
lastChange = "2023-12-17 13:17:56 +0000";
layers = (
{
layerId = m01;
shapes = (
{
ref = U;
},
{
pos = (178,23);
ref = ogonekcomb;
},
{
attr = {
lineCapEnd = 1;
lineCapStart = 1;
strokeHeight = 100;
strokeWidth = 100;
};
closed = 0;
nodes = (
(630,265,l)
);
}
);
width = 730;
}
);
unicode = 370;
},
{
glyphname = V;
lastChange = "2023-12-17 13:36:37 +0000";
layers = (
{
anchors = (
{
name = bottom;
pos = (365,0);
},
{
name = top;
pos = (365,850);
}
);
layerId = m01;
shapes = (
{
attr = {
lineCapEnd = 1;
lineCapStart = 1;
strokeWidth = 100;
};
closed = 0;
nodes = (
(630,800,l),
(365,0,l)
);
},
{
attr = {
lineCapEnd = 1;
lineCapStart = 1;
strokeWidth = 100;
};
closed = 0;
nodes = (
(365,0,l),
(100,800,l)
);
}
);
width = 730;
}
);
unicode = 86;
},
{
glyphname = W;
lastChange = "2023-12-17 13:36:39 +0000";
layers = (
{
anchors = (
{
name = bottom;
pos = (500,0);
},
{
name = top;
pos = (500,850);
}
);
layerId = m01;
shapes = (
{
attr = {
lineCapEnd = 1;
lineCapStart = 1;
strokeWidth = 100;
};
closed = 0;
nodes = (
(900,800,l),
(700,0,l)
);
},
{
attr = {
lineCapEnd = 1;
lineCapStart = 1;
strokeWidth = 100;
};
closed = 0;
nodes = (
(300,0,l),
(100,800,l)
);
},
{
attr = {
lineCapEnd = 1;
lineCapStart = 1;
strokeWidth = 100;
};
closed = 0;
nodes = (
(500,800,l),
(300,0,l)
);
},
{
attr = {
lineCapEnd = 1;
lineCapStart = 1;
strokeWidth = 100;
};
closed = 0;
nodes = (
(700,0,l),
(500,800,l)
);
}
);
width = 1000;
}
);
unicode = 87;
},
{
glyphname = X;
lastChange = "2023-12-17 13:36:42 +0000";
layers = (
{
anchors = (
{
name = bottom;
pos = (365,0);
},
{
name = top;
pos = (365,850);
}
);
layerId = m01;
shapes = (
{
attr = {
lineCapEnd = 1;
lineCapStart = 1;
strokeWidth = 100;
};
closed = 0;
nodes = (
(100,800,l),
(630,0,l)
);
},
{
attr = {
lineCapEnd = 1;
lineCapStart = 1;
strokeWidth = 100;
};
closed = 0;
nodes = (
(630,800,l),
(100,0,l)
);
}
);
width = 730;
}
);
unicode = 88;
},
{
glyphname = Y;
lastChange = "2023-12-17 13:36:43 +0000";
layers = (
{
anchors = (
{
name = bottom;
pos = (365,0);
},
{
name = top;
pos = (365,850);
},
{
name = topleft;
pos = (20,850);
}
);
layerId = m01;
shapes = (
{
attr = {
lineCapEnd = 1;
lineCapStart = 1;
strokeWidth = 100;
};
closed = 0;
nodes = (
(630,800,l),
(365,400,l)
);
},
{
attr = {
lineCapEnd = 1;
lineCapStart = 1;
strokeWidth = 100;
};
closed = 0;
nodes = (
(365,0,l),
(365,400,l)
);
},
{
attr = {
lineCapEnd = 1;
lineCapStart = 1;
strokeWidth = 100;
};
closed = 0;
nodes = (
(365,400,l),
(100,800,l)
);
}
);
width = 730;
}
);
unicode = 89;
},
{
glyphname = Z;
lastChange = "2023-12-17 13:36:46 +0000";
layers = (
{
anchors = (
{
name = bottom;
pos = (365,0);
},
{
name = center;
pos = (365,425);
},
{
name = top;
pos = (365,850);
}
);
layerId = m01;
shapes = (
{
attr = {
lineCapEnd = 1;
lineCapStart = 1;
strokeWidth = 100;
};
closed = 0;
nodes = (
(630,800,l),
(100,0,l)
);
},
{
attr = {
lineCapEnd = 1;
lineCapStart = 1;
strokeWidth = 100;
};
closed = 0;
nodes = (
(100,800,l),
(630,800,l)
);
},
{
attr = {
lineCapEnd = 1;
lineCapStart = 1;
strokeWidth = 100;
};
closed = 0;
nodes = (
(100,0,l),
(630,0,l)
);
}
);
width = 730;
}
);
unicode = 90;
},
{
glyphname = Lslash.001;
layers = (
{
layerId = m01;
shapes = (
{
ref = L;
},
{
attr = {
lineCapEnd = "1";
lineCapStart = "1";
strokeHeight = 100;
strokeWidth = 100;
};
closed = 0;
nodes = (
(280,530,l),
(0,400,l)
);
}
);
width = 600;
}
);
},
{
glyphname = a;
kernLeft = lowercaseRound;
kernRight = lowercaseStraight;
lastChange = "2023-12-16 13:54:58 +0000";
layers = (
{
layerId = m01;
shapes = (
{
attr = {
lineCapEnd = 1;
lineCapStart = 1;
strokeWidth = 100;
};
closed = 0;
nodes = (
(500,0,l),
(500,530,l)
);
},
{
attr = {
lineCapEnd = 1;
lineCapStart = 1;
strokeWidth = 100;
};
closed = 0;
nodes = (
(500,200,l),
(500,90,o),
(410,0,o),
(300,0,c),
(189,0,o),
(100,90,o),
(100,200,c),
(100,330,l),
(100,440,o),
(189,530,o),
(300,530,c),
(410,530,o),
(500,440,o),
(500,330,c)
);
}
);
width = 600;
}
);
unicode = 97;
},
{
glyphname = ae;
kernLeft = lowercaseRound;
kernRight = lowercaseRound;
lastChange = "2023-12-17 16:04:24 +0000";
layers = (
{
layerId = m01;
shapes = (
{
attr = {
lineCapEnd = 1;
lineCapStart = 1;
strokeWidth = 100;
};
closed = 0;
nodes = (
(874,101,l),
(839,41,o),
(774,0,o),
(700,0,c),
(700,0,l),
(590,0,o),
(500,90,o),
(500,200,c),
(500,330,l),
(500,440,o),
(590,530,o),
(700,530,c),
(700,530,l),
(811,530,o),
(900,440,o),
(900,330,c),
(900,265,l)
);
},
{
attr = {
lineCapEnd = 1;
lineCapStart = 1;
strokeWidth = 100;
};
closed = 0;
nodes = (
(500,200,l),
(500,90,o),
(411,0,o),
(301,0,c),
(231,0,l),
(159,0,o),
(100,59,o),
(100,133,c),
(100,206,o),
(159,265,o),
(231,265,c),
(500,265,l)
);
},
{
attr = {
lineCapEnd = 1;
lineCapStart = 1;
strokeWidth = 100;
};
closed = 0;
nodes = (
(150,478,l),
(198,526,o),
(232,530,o),
(325,530,c),
(431,530,o),
(500,484,o),
(500,358,c),
(500,265,l)
);
},
{
attr = {
lineCapEnd = 1;
lineCapStart = 1;
strokeWidth = 100;
};
closed = 0;
nodes = (
(900,265,l),
(500,265,l)
);
}
);
width = 1000;
}
);
unicode = 230;
},
{
glyphname = b;
kernLeft = lowercaseStraight;
kernRight = lowercaseRound;
lastChange = "2023-12-16 13:26:50 +0000";
layers = (
{
layerId = m01;
shapes = (
{
attr = {
lineCapEnd = 1;
lineCapStart = 1;
strokeWidth = 100;
};
closed = 0;
nodes = (
(100,0,l),
(100,800,l)
);
},
{
attr = {
lineCapEnd = 1;
lineCapStart = 1;
strokeWidth = 100;
};
closed = 0;
nodes = (
(100,330,l),
(100,440,o),
(190,530,o),
(300,530,c),
(410,530,o),
(500,440,o),
(500,330,c),
(500,200,l),
(500,90,o),
(410,0,o),
(300,0,c),
(190,0,o),
(100,90,o),
(100,200,c)
);
}
);
width = 600;
}
);
unicode = 98;
},
{
glyphname = c;
kernLeft = lowercaseRound;
lastChange = "2023-12-17 13:14:19 +0000";
layers = (
{
anchors = (
{
name = bottom;
pos = (300,0);
},
{
name = top;
pos = (300,580);
}
);
layerId = m01;
shapes = (
{
attr = {
lineCapEnd = 1;
lineCapStart = 1;
strokeWidth = 100;
};
closed = 0;
nodes = (
(474,101,l),
(439,41,o),
(375,0,o),
(300,0,c),
(190,0,o),
(100,90,o),
(100,200,c),
(100,330,l),
(100,440,o),
(190,530,o),
(300,530,c),
(374,530,o),
(439,490,o),
(474,430,c)
);
}
);
width = 574;
}
);
unicode = 99;
},
{
glyphname = d;
kernLeft = lowercaseRound;
kernRight = lowercaseStraight;
lastChange = "2023-12-17 13:30:48 +0000";
layers = (
{
anchors = (
{
name = bottom;
pos = (300,0);
},
{
name = center;
pos = (300,290);
},
{
name = top;
pos = (300,965);
},
{
name = topright;
pos = (645,580);
}
);
layerId = m01;
shapes = (
{
attr = {
lineCapEnd = "1";
lineCapStart = "1";
strokeWidth = 100;
};
closed = 0;
nodes = (
(500,0,l),
(500,800,l)
);
},
{
attr = {
lineCapEnd = "1";
lineCapStart = "1";
strokeWidth = 100;
};
closed = 0;
nodes = (
(500,200,l),
(500,90,o),
(410,0,o),
(300,0,c),
(190,0,o),
(100,90,o),
(100,200,c),
(100,330,l),
(100,440,o),
(190,530,o),
(300,530,c),
(410,530,o),
(500,440,o),
(500,330,c)
);
}
);
width = 600;
}
);
unicode = 100;
},
{
glyphname = eth;
lastChange = "2023-12-02 18:23:00 +0000";
layers = (
{
layerId = m01;
shapes = (
{
attr = {
strokeWidth = 100;
};
closed = 1;
nodes = (
(100,440,o),
(190,530,o),
(300,530,c),
(411,530,o),
(500,440,o),
(500,330,c),
(500,200,l),
(500,89,o),
(411,0,o),
(300,0,c),
(190,0,o),
(100,89,o),
(100,200,c),
(100,330,l)
);
},
{
attr = {
lineCapEnd = 1;
lineCapStart = 1;
strokeWidth = 100;
};
closed = 0;
nodes = (
(200,800,l),
(484,727,o),
(500,530,o),
(500,330,c)
);
},
{
attr = {
lineCapEnd = 1;
lineCapStart = 1;
strokeWidth = 100;
};
closed = 0;
nodes = (
(460,800,l),
(242,655,l)
);
}
);
width = 600;
}
);
unicode = 240;
},
{
glyphname = dcroat;
lastChange = "2023-12-17 15:45:16 +0000";
layers = (
{
layerId = m01;
shapes = (
{
ref = d;
},
{
attr = {
lineCapEnd = "1";
lineCapStart = "1";
strokeHeight = 100;
strokeWidth = 100;
};
closed = 0;
nodes = (
(369,700,l),
(580,700,l)
);
}
);
width = 600;
}
);
unicode = 273;
},
{
glyphname = e;
kernLeft = lowercaseRound;
kernRight = lowercaseRound;
lastChange = "2023-12-17 13:30:22 +0000";
layers = (
{
anchors = (
{
name = bottom;
pos = (300,0);
},
{
name = ogonek;
pos = (474,94);
},
{
name = top;
pos = (300,580);
}
);
layerId = m01;
shapes = (
{
attr = {
lineCapEnd = 1;
lineCapStart = 1;
strokeWidth = 100;
};
closed = 0;
nodes = (
(500,265,l),
(100,265,l)
);
},
{
attr = {
lineCapEnd = 1;
lineCapStart = 1;
strokeWidth = 100;
};
closed = 0;
nodes = (
(474,101,l),
(439,41,o),
(374,0,o),
(300,0,c),
(190,0,o),
(100,90,o),
(100,200,c),
(100,330,l),
(100,440,o),
(190,530,o),
(300,530,c),
(411,530,o),
(500,440,o),
(500,330,c),
(500,265,l)
);
}
);
width = 600;
}
);
unicode = 101;
},
{
glyphname = eogonek;
kernLeft = lowercaseRound;
kernRight = lowercaseRound;
lastChange = "2023-12-12 19:08:34 +0000";
layers = (
{
layerId = m01;
shapes = (
{
ref = e;
},
{
pos = (75,0);
ref = ogonekcomb;
},
{
attr = {
lineCapEnd = 1;
lineCapStart = 1;
strokeHeight = 100;
strokeWidth = 100;
};
closed = 0;
nodes = (
(474,101,l),
(446,45,o),
(423,26,o),
(377,1,cs)
);
}
);
width = 560;
}
);
unicode = 281;
},
{
glyphname = schwa;
kernLeft = lowercaseRound;
kernRight = lowercaseRound;
lastChange = "2023-12-12 19:08:34 +0000";
layers = (
{
layerId = m01;
shapes = (
{
attr = {
lineCapEnd = "1";
lineCapStart = "1";
strokeWidth = 100;
};
closed = 0;
nodes = (
(100,265,l),
(500,265,l)
);
},
{
attr = {
lineCapEnd = "1";
lineCapStart = "1";
strokeWidth = 100;
};
closed = 0;
nodes = (
(126,429,l),
(161,489,o),
(226,530,o),
(300,530,c),
(410,530,o),
(500,440,o),
(500,330,c),
(500,200,l),
(500,90,o),
(410,0,o),
(300,0,c),
(189,0,o),
(100,90,o),
(100,200,c),
(100,265,l)
);
}
);
width = 600;
}
);
unicode = 601;
},
{
glyphname = f;
lastChange = "2023-12-12 19:35:30 +0000";
layers = (
{
layerId = m01;
shapes = (
{
attr = {
lineCapEnd = 1;
lineCapStart = 1;
strokeWidth = 100;
};
closed = 0;
nodes = (
(100,530,l),
(380,530,l)
);
},
{
attr = {
lineCapEnd = 1;
lineCapStart = 1;
strokeWidth = 100;
};
closed = 0;
nodes = (
(218,0,l),
(218,660,l),
(218,737,o),
(281,800,o),
(358,800,c),
(427,800,o),
(470,780,o),
(500,741,c)
);
}
);
width = 600;
}
);
unicode = 102;
},
{
glyphname = g;
kernLeft = lowercaseRound;
kernRight = lowercaseStraight;
lastChange = "2023-12-17 13:31:15 +0000";
layers = (
{
anchors = (
{
name = bottom;
pos = (300,-270);
},
{
name = top;
pos = (300,580);
}
);
layerId = m01;
shapes = (
{
attr = {
lineCapEnd = 2;
lineCapStart = 1;
strokeWidth = 100;
};
closed = 0;
nodes = (
(500,530,l),
(500,-70,l),
(500,-181,o),
(411,-270,o),
(300,-270,c),
(300,-270,l),
(245,-270,o),
(195,-248,o),
(159,-212,c)
);
},
{
attr = {
lineCapEnd = 1;
lineCapStart = 1;
strokeWidth = 100;
};
closed = 0;
nodes = (
(500,200,l),
(500,89,o),
(411,0,o),
(300,0,c),
(190,0,o),
(100,89,o),
(100,200,c),
(100,330,l),
(100,440,o),
(190,530,o),
(300,530,c),
(411,530,o),
(500,440,o),
(500,330,c)
);
}
);
width = 600;
}
);
unicode = 103;
},
{
glyphname = h;
kernLeft = lowercaseStraight;
kernRight = lowercaseRounding;
lastChange = "2023-12-17 13:31:24 +0000";
layers = (
{
anchors = (
{
name = bottom;
pos = (300,0);
},
{
name = center;
pos = (300,483);
},
{
name = top;
pos = (300,850);
}
);
layerId = m01;
shapes = (
{
attr = {
lineCapEnd = 1;
lineCapStart = 1;
strokeWidth = 100;
};
closed = 0;
nodes = (
(100,800,l),
(100,0,l)
);
},
{
attr = {
lineCapEnd = 1;
lineCapStart = 1;
strokeWidth = 100;
};
closed = 0;
nodes = (
(100,330,l),
(100,440,o),
(189,530,o),
(300,530,c),
(410,530,o),
(500,440,o),
(500,330,c),
(500,0,l)
);
}
);
width = 600;
}
);
unicode = 104;
},
{
glyphname = hbar;
kernRight = lowercaseRounding;
lastChange = "2023-12-17 15:41:40 +0000";
layers = (
{
layerId = m01;
shapes = (
{
ref = h;
},
{
attr = {
lineCapEnd = 1;
lineCapStart = 1;
strokeHeight = 100;
strokeWidth = 100;
};
closed = 0;
nodes = (
(20,700,l),
(231,700,l)
);
}
);
width = 600;
}
);
unicode = 295;
},
{
glyphname = i;
lastChange = "2023-12-16 13:55:58 +0000";
layers = (
{
layerId = m01;
shapes = (
{
closed = 1;
nodes = (
(200,796,o),
(166,830,o),
(125,830,c),
(83,830,o),
(50,796,o),
(50,755,c),
(50,714,o),
(83,680,o),
(125,680,c),
(166,680,o),
(200,714,o),
(200,755,c)
);
},
{
pos = (20,0);
ref = idotless;
}
);
width = 250;
}
);
unicode = 105;
},
{
glyphname = idotless;
lastChange = "2023-12-17 13:31:44 +0000";
layers = (
{
anchors = (
{
name = bottom;
pos = (105,0);
},
{
name = ogonek;
pos = (156,52);
},
{
name = top;
pos = (105,580);
}
);
layerId = m01;
shapes = (
{
attr = {
lineCapEnd = 1;
lineCapStart = 1;
strokeWidth = 100;
};
closed = 0;
nodes = (
(105,530,l),
(105,0,l)
);
}
);
width = 210;
}
);
unicode = 305;
},
{
glyphname = j;
kernRight = lowercaseStraight;
lastChange = "2023-12-16 13:56:32 +0000";
layers = (
{
layerId = m01;
shapes = (
{
closed = 1;
nodes = (
(412,811,o),
(379,845,o),
(337,845,c),
(296,845,o),
(262,811,o),
(262,770,c),
(262,729,o),
(296,695,o),
(337,695,c),
(379,695,o),
(412,729,o),
(412,770,c)
);
},
{
pos = (-100,0);
ref = jdotless;
}
);
width = 443;
}
);
unicode = 106;
},
{
glyphname = jdotless;
kernRight = lowercaseStraight;
lastChange = "2023-12-17 13:13:32 +0000";
layers = (
{
anchors = (
{
name = bottom;
pos = (240,-304);
},
{
name = top;
pos = (438,580);
}
);
layerId = m01;
shapes = (
{
attr = {
lineCapEnd = 1;
lineCapStart = 1;
strokeWidth = 100;
};
closed = 0;
nodes = (
(438,530,l),
(438,-70,l),
(438,-180,o),
(350,-270,o),
(240,-270,c),
(186,-270,o),
(136,-248,o),
(100,-211,c)
);
}
);
width = 538;
}
);
unicode = 567;
},
{
glyphname = k;
lastChange = "2023-12-17 13:32:11 +0000";
layers = (
{
anchors = (
{
name = bottom;
pos = (300,0);
},
{
name = top;
pos = (300,850);
}
);
layerId = m01;
shapes = (
{
attr = {
lineCapEnd = 1;
lineCapStart = 1;
strokeWidth = 100;
};
closed = 0;
nodes = (
(100,800,l),
(100,0,l)
);
},
{
attr = {
lineCapEnd = 1;
lineCapStart = 1;
strokeWidth = 100;
};
closed = 0;
nodes = (
(100,170,l),
(462,530,l)
);
},
{
attr = {
lineCapEnd = 1;
lineCapStart = 1;
strokeWidth = 100;
};
closed = 0;
nodes = (
(215,285,l),
(500,1,l)
);
}
);
width = 600;
}
);
unicode = 107;
},
{
glyphname = l;
lastChange = "2023-12-17 13:32:25 +0000";
layers = (
{
anchors = (
{
name = bottom;
pos = (165,0);
},
{
name = center;
pos = (165,483);
},
{
name = top;
pos = (165,850);
},
{
name = topright;
pos = (249,580);
}
);
layerId = m01;
shapes = (
{
attr = {
lineCapEnd = 1;
lineCapStart = 1;
strokeWidth = 100;
};
closed = 0;
nodes = (
(100,800,l),
(100,100,l),
(100,45,o),
(145,0,o),
(200,0,c),
(230,0,l)
);
}
);
width = 330;
}
);
unicode = 108;
},
{
glyphname = lslash;
lastChange = "2023-12-17 15:38:14 +0000";
layers = (
{
layerId = m01;
shapes = (
{
ref = l;
},
{
attr = {
lineCapEnd = 1;
lineCapStart = 1;
strokeHeight = 100;
strokeWidth = 100;
};
closed = 0;
nodes = (
(220,430,l),
(-20,370,l)
);
}
);
width = 330;
}
);
unicode = 322;
},
{
glyphname = m;
kernLeft = lowercaseStraight;
kernRight = lowercaseRounding;
lastChange = "2023-12-16 13:25:17 +0000";
layers = (
{
layerId = m01;
shapes = (
{
attr = {
lineCapEnd = 1;
lineCapStart = 1;
strokeWidth = 100;
};
closed = 0;
nodes = (
(100,530,l),
(100,0,l)
);
},
{
attr = {
lineCapEnd = 1;
lineCapStart = 1;
strokeWidth = 100;
};
closed = 0;
nodes = (
(100,330,l),
(100,440,o),
(189,530,o),
(300,530,c),
(410,530,o),
(500,440,o),
(500,330,c),
(500,0,l)
);
},
{
attr = {
lineCapEnd = 1;
lineCapStart = 1;
strokeWidth = 100;
};
closed = 0;
nodes = (
(500,330,l),
(500,440,o),
(589,530,o),
(700,530,c),
(810,530,o),
(900,440,o),
(900,330,c),
(900,0,l)
);
}
);
width = 1000;
}
);
unicode = 109;
},
{
glyphname = n;
kernLeft = lowercaseStraight;
kernRight = lowercaseRounding;
lastChange = "2023-12-17 13:32:38 +0000";
layers = (
{
anchors = (
{
name = bottom;
pos = (300,0);
},
{
name = top;
pos = (300,580);
}
);
layerId = m01;
shapes = (
{
attr = {
lineCapEnd = 1;
lineCapStart = 1;
strokeWidth = 100;
};
closed = 0;
nodes = (
(100,530,l),
(100,0,l)
);
},
{
attr = {
lineCapEnd = 1;
lineCapStart = 1;
strokeWidth = 100;
};
closed = 0;
nodes = (
(100,330,l),
(100,440,o),
(190,530,o),
(300,530,c),
(411,530,o),
(500,440,o),
(500,330,c),
(500,0,l)
);
}
);
width = 600;
}
);
unicode = 110;
},
{
glyphname = o;
kernLeft = lowercaseRound;
kernRight = lowercaseRound;
lastChange = "2023-12-17 13:32:56 +0000";
layers = (
{
anchors = (
{
name = bottom;
pos = (300,0);
},
{
name = center;
pos = (300,290);
},
{
name = ogonek;
pos = (410,59);
},
{
name = top;
pos = (300,580);
},
{
name = topright;
pos = (580,580);
}
);
layerId = m01;
shapes = (
{
attr = {
strokeWidth = 100;
};
closed = 1;
nodes = (
(500,90,o),
(410,0,o),
(300,0,c),
(190,0,o),
(100,90,o),
(100,200,c),
(100,330,l),
(100,440,o),
(190,530,o),
(300,530,c),
(410,530,o),
(500,440,o),
(500,330,c),
(500,200,l)
);
}
);
width = 600;
}
);
unicode = 111;
},
{
glyphname = oslash;
kernLeft = lowercaseRound;
kernRight = lowercaseRound;
lastChange = "2023-12-12 19:08:34 +0000";
layers = (
{
layerId = m01;
shapes = (
{
ref = o;
},
{
attr = {
lineCapEnd = 1;
lineCapStart = 1;
strokeWidth = 100;
};
closed = 0;
nodes = (
(100,0,l),
(500,530,l)
);
}
);
width = 600;
}
);
unicode = 248;
},
{
glyphname = oe;
kernLeft = lowercaseRound;
kernRight = lowercaseRound;
lastChange = "2023-12-12 19:08:34 +0000";
layers = (
{
layerId = m01;
shapes = (
{
attr = {
lineCapEnd = 1;
lineCapStart = 1;
strokeWidth = 100;
};
closed = 0;
nodes = (
(500,200,l),
(500,90,o),
(411,0,o),
(300,0,c),
(190,0,o),
(100,90,o),
(100,200,c),
(100,330,l),
(100,440,o),
(190,530,o),
(300,530,c),
(411,530,o),
(500,440,o),
(500,330,c)
);
},
{
attr = {
lineCapEnd = 1;
lineCapStart = 1;
strokeWidth = 100;
};
closed = 0;
nodes = (
(900,265,l),
(500,265,l)
);
},
{
attr = {
lineCapEnd = 1;
lineCapStart = 1;
strokeWidth = 100;
};
closed = 0;
nodes = (
(874,101,l),
(840,41,o),
(775,0,o),
(700,0,c),
(590,0,o),
(500,90,o),
(500,200,c),
(500,330,l),
(500,440,o),
(590,530,o),
(700,530,c),
(811,530,o),
(900,440,o),
(900,330,c),
(900,265,l)
);
}
);
width = 1000;
}
);
unicode = 339;
},
{
glyphname = p;
kernLeft = lowercaseStraight;
kernRight = lowercaseRound;
lastChange = "2023-12-17 13:33:02 +0000";
layers = (
{
anchors = (
{
name = bottom;
pos = (300,0);
},
{
name = top;
pos = (300,580);
}
);
layerId = m01;
shapes = (
{
attr = {
lineCapEnd = "1";
lineCapStart = "1";
strokeWidth = 100;
};
closed = 0;
nodes = (
(100,-270,l),
(100,530,l)
);
},
{
attr = {
lineCapEnd = "1";
lineCapStart = "1";
strokeWidth = 100;
};
closed = 0;
nodes = (
(100,330,l),
(100,440,o),
(190,530,o),
(300,530,c),
(410,530,o),
(500,440,o),
(500,330,c),
(500,200,l),
(500,90,o),
(410,0,o),
(300,0,c),
(190,0,o),
(100,90,o),
(100,200,c)
);
}
);
width = 600;
}
);
unicode = 112;
},
{
glyphname = thorn;
kernLeft = lowercaseStraight;
lastChange = "2023-12-17 15:43:41 +0000";
layers = (
{
layerId = m01;
shapes = (
{
attr = {
identifier = ID0x168d678c0;
lineCapEnd = "1";
lineCapStart = "1";
strokeWidth = 100;
};
closed = 0;
nodes = (
(100,-270,l),
(100,800,l)
);
},
{
attr = {
identifier = ID0x168d678c0;
lineCapEnd = "1";
lineCapStart = "1";
strokeWidth = 100;
};
closed = 0;
nodes = (
(100,330,l),
(100,440,o),
(190,530,o),
(300,530,c),
(410,530,o),
(500,440,o),
(500,330,c),
(500,200,l),
(500,90,o),
(410,0,o),
(300,0,c),
(190,0,o),
(100,90,o),
(100,200,c)
);
}
);
width = 600;
}
);
unicode = 254;
},
{
glyphname = q;
kernLeft = lowercaseRound;
kernRight = lowercaseStraight;
lastChange = "2023-12-12 19:18:57 +0000";
layers = (
{
layerId = m01;
shapes = (
{
attr = {
lineCapEnd = "1";
lineCapStart = "1";
strokeWidth = 100;
};
closed = 0;
nodes = (
(500,-270,l),
(500,530,l)
);
},
{
attr = {
lineCapEnd = "1";
lineCapStart = "1";
strokeWidth = 100;
};
closed = 0;
nodes = (
(500,200,l),
(500,90,o),
(410,0,o),
(300,0,c),
(190,0,o),
(100,90,o),
(100,200,c),
(100,330,l),
(100,440,o),
(190,530,o),
(300,530,c),
(410,530,o),
(500,440,o),
(500,330,c)
);
}
);
width = 600;
}
);
unicode = 113;
},
{
glyphname = r;
kernLeft = lowercaseStraight;
lastChange = "2023-12-17 13:50:47 +0000";
layers = (
{
anchors = (
{
name = bottom;
pos = (50,0);
},
{
name = top;
pos = (190,580);
}
);
layerId = m01;
shapes = (
{
attr = {
lineCapEnd = 1;
lineCapStart = 1;
strokeWidth = 100;
};
closed = 0;
nodes = (
(100,330,l),
(100,440,o),
(189,530,o),
(300,530,c)
);
},
{
attr = {
lineCapEnd = 1;
lineCapStart = 1;
strokeWidth = 100;
};
closed = 0;
nodes = (
(100,530,l),
(100,0,l)
);
}
);
width = 380;
}
);
unicode = 114;
},
{
glyphname = s;
lastChange = "2023-12-17 13:13:55 +0000";
layers = (
{
anchors = (
{
name = bottom;
pos = (277,0);
},
{
name = top;
pos = (277,580);
}
);
layerId = m01;
shapes = (
{
attr = {
lineCapEnd = 1;
lineCapStart = 1;
strokeWidth = 100;
};
closed = 0;
nodes = (
(112,45,l),
(149,14,o),
(188,0,o),
(277,0,c),
(322,0,l),
(395,0,o),
(454,59,o),
(454,133,c),
(454,133,l),
(454,206,o),
(395,265,o),
(322,265,c),
(232,265,l),
(159,265,o),
(100,324,o),
(100,398,c),
(100,398,l),
(100,471,o),
(159,530,o),
(232,530,c),
(277,530,l),
(365,530,o),
(405,516,o),
(441,485,c)
);
}
);
width = 554;
}
);
unicode = 115;
},
{
glyphname = germandbls;
lastChange = "2023-12-17 15:57:01 +0000";
layers = (
{
layerId = m01;
shapes = (
{
attr = {
lineCapEnd = 1;
lineCapStart = 1;
strokeWidth = 100;
};
closed = 0;
nodes = (
(264,1,l),
(275,0,o),
(288,0,o),
(300,0,c),
(410,0,o),
(500,90,o),
(500,200,c),
(500,310,o),
(410,400,o),
(300,400,c)
);
},
{
attr = {
lineCapEnd = 1;
lineCapStart = 1;
strokeWidth = 100;
};
closed = 0;
nodes = (
(100,0,l),
(100,600,l),
(100,710,o),
(189,800,o),
(300,800,c),
(410,800,o),
(500,710,o),
(500,600,c),
(500,489,o),
(410,400,o),
(300,400,c)
);
}
);
width = 600;
}
);
unicode = 223;
},
{
glyphname = t;
lastChange = "2023-12-16 13:56:06 +0000";
layers = (
{
layerId = m01;
shapes = (
{
attr = {
lineCapEnd = 1;
lineCapStart = 1;
strokeWidth = 100;
};
closed = 0;
nodes = (
(205,695,l),
(205,100,l),
(205,45,o),
(250,0,o),
(305,0,c),
(335,0,l)
);
},
{
attr = {
lineCapEnd = 1;
lineCapStart = 1;
strokeWidth = 100;
};
closed = 0;
nodes = (
(100,530,l),
(310,530,l)
);
}
);
width = 435;
}
);
unicode = 116;
},
{
glyphname = u;
kernRight = lowercaseStraight;
lastChange = "2023-12-17 13:33:38 +0000";
layers = (
{
anchors = (
{
name = bottom;
pos = (300,0);
},
{
name = ogonek;
pos = (549,50);
},
{
name = top;
pos = (300,580);
},
{
name = topright;
pos = (580,580);
}
);
layerId = m01;
shapes = (
{
attr = {
lineCapEnd = "1";
lineCapStart = "1";
strokeWidth = 100;
};
closed = 0;
nodes = (
(500,530,l),
(500,0,l)
);
},
{
attr = {
lineCapEnd = "1";
lineCapStart = "1";
strokeWidth = 100;
};
closed = 0;
nodes = (
(500,200,l),
(500,90,o),
(410,0,o),
(300,0,c),
(189,0,o),
(100,90,o),
(100,200,c),
(100,530,l)
);
}
);
width = 600;
}
);
unicode = 117;
},
{
glyphname = v;
lastChange = "2023-12-17 13:33:51 +0000";
layers = (
{
anchors = (
{
name = bottom;
pos = (300,0);
},
{
name = top;
pos = (300,580);
}
);
layerId = m01;
shapes = (
{
attr = {
lineCapEnd = 1;
lineCapStart = 1;
strokeWidth = 100;
};
closed = 0;
nodes = (
(500,530,l),
(300,0,l)
);
},
{
attr = {
lineCapEnd = 1;
lineCapStart = 1;
strokeWidth = 100;
};
closed = 0;
nodes = (
(300,0,l),
(100,530,l)
);
}
);
width = 600;
}
);
unicode = 118;
},
{
glyphname = w;
lastChange = "2023-12-17 13:33:53 +0000";
layers = (
{
anchors = (
{
name = bottom;
pos = (430,0);
},
{
name = top;
pos = (430,580);
}
);
layerId = m01;
shapes = (
{
attr = {
lineCapEnd = 1;
lineCapStart = 1;
strokeWidth = 100;
};
closed = 0;
nodes = (
(430,530,l),
(265,0,l)
);
},
{
attr = {
lineCapEnd = 1;
lineCapStart = 1;
strokeWidth = 100;
};
closed = 0;
nodes = (
(760,530,l),
(595,0,l)
);
},
{
attr = {
lineCapEnd = 1;
lineCapStart = 1;
strokeWidth = 100;
};
closed = 0;
nodes = (
(595,0,l),
(430,530,l)
);
},
{
attr = {
lineCapEnd = 1;
lineCapStart = 1;
strokeWidth = 100;
};
closed = 0;
nodes = (
(265,0,l),
(100,530,l)
);
}
);
width = 860;
}
);
unicode = 119;
},
{
glyphname = x;
kernRight = "0";
lastChange = "2023-12-17 13:33:57 +0000";
layers = (
{
anchors = (
{
name = bottom;
pos = (300,0);
},
{
name = top;
pos = (300,580);
}
);
layerId = m01;
shapes = (
{
attr = {
lineCapEnd = 1;
lineCapStart = 1;
strokeWidth = 100;
};
closed = 0;
nodes = (
(500,530,l),
(100,0,l)
);
},
{
attr = {
lineCapEnd = 1;
lineCapStart = 1;
strokeWidth = 100;
};
closed = 0;
nodes = (
(500,0,l),
(100,530,l)
);
}
);
width = 600;
}
);
unicode = 120;
},
{
glyphname = y;
kernRight = lowercaseStraight;
lastChange = "2023-12-17 13:34:03 +0000";
layers = (
{
anchors = (
{
name = bottom;
pos = (300,0);
},
{
name = top;
pos = (300,580);
}
);
layerId = m01;
shapes = (
{
attr = {
lineCapEnd = 1;
lineCapStart = 1;
strokeWidth = 100;
};
closed = 0;
nodes = (
(500,200,l),
(500,90,o),
(410,0,o),
(300,0,c),
(189,0,o),
(100,90,o),
(100,200,c),
(100,530,l)
);
},
{
attr = {
lineCapEnd = 1;
lineCapStart = 1;
strokeWidth = 100;
};
closed = 0;
nodes = (
(500,530,l),
(500,-70,l),
(500,-180,o),
(410,-270,o),
(300,-270,c),
(245,-270,o),
(195,-248,o),
(158,-211,c)
);
}
);
width = 600;
}
);
unicode = 121;
},
{
glyphname = z;
lastChange = "2023-12-17 13:34:09 +0000";
layers = (
{
anchors = (
{
name = bottom;
pos = (300,0);
},
{
name = center;
pos = (300,290);
},
{
name = top;
pos = (300,580);
}
);
layerId = m01;
shapes = (
{
attr = {
lineCapEnd = 1;
lineCapStart = 1;
strokeWidth = 100;
};
closed = 0;
nodes = (
(500,530,l),
(100,0,l)
);
},
{
attr = {
lineCapEnd = 1;
lineCapStart = 1;
strokeWidth = 100;
};
closed = 0;
nodes = (
(100,0,l),
(500,0,l)
);
},
{
attr = {
lineCapEnd = 1;
lineCapStart = 1;
strokeWidth = 100;
};
closed = 0;
nodes = (
(100,530,l),
(500,530,l)
);
}
);
width = 600;
}
);
unicode = 122;
},
{
glyphname = f_f;
lastChange = "2023-12-02 18:33:02 +0000";
layers = (
{
layerId = m01;
shapes = (
{
attr = {
lineCapEnd = 1;
lineCapStart = 1;
strokeWidth = 100;
};
closed = 0;
nodes = (
(100,530,l),
(652,530,l)
);
},
{
attr = {
lineCapEnd = 1;
lineCapStart = 1;
strokeWidth = 100;
};
closed = 0;
nodes = (
(205,0,l),
(205,660,l),
(205,737,o),
(268,800,o),
(345,800,c),
(362,800,o),
(377,799,o),
(390,797,c)
);
},
{
attr = {
lineCapEnd = 1;
lineCapStart = 1;
strokeWidth = 100;
};
closed = 0;
nodes = (
(481,0,l),
(481,660,l),
(481,737,o),
(544,800,o),
(621,800,c),
(690,800,o),
(733,780,o),
(762,741,c)
);
}
);
width = 862;
}
);
metricLeft = f;
metricRight = f;
},
{
glyphname = f_f_i;
lastChange = "2023-12-02 18:33:05 +0000";
layers = (
{
layerId = m01;
shapes = (
{
attr = {
lineCapEnd = 1;
lineCapStart = 1;
strokeWidth = 100;
};
closed = 0;
nodes = (
(818,530,l),
(818,0,l)
);
},
{
attr = {
lineCapEnd = 1;
lineCapStart = 1;
strokeWidth = 100;
};
closed = 0;
nodes = (
(818,530,l),
(100,530,l)
);
},
{
attr = {
lineCapEnd = 1;
lineCapStart = 1;
strokeWidth = 100;
};
closed = 0;
nodes = (
(205,0,l),
(205,660,l),
(205,737,o),
(268,800,o),
(345,800,c),
(345,800,o),
(377,799,o),
(391,797,c)
);
},
{
attr = {
lineCapEnd = 1;
lineCapStart = 1;
strokeWidth = 100;
};
closed = 0;
nodes = (
(481,0,l),
(481,660,l),
(481,737,o),
(544,800,o),
(621,800,c),
(690,800,o),
(734,780,o),
(763,741,c)
);
}
);
width = 918;
}
);
metricLeft = f;
metricRight = i;
},
{
glyphname = f_f_l;
lastChange = "2023-12-17 16:04:49 +0000";
layers = (
{
layerId = m01;
shapes = (
{
attr = {
lineCapEnd = 1;
lineCapStart = 1;
strokeWidth = 100;
};
closed = 0;
nodes = (
(375,530,l),
(642,530,l)
);
},
{
attr = {
lineCapEnd = 1;
lineCapStart = 1;
strokeWidth = 100;
};
closed = 0;
nodes = (
(480,0,l),
(480,660,l),
(480,737,o),
(543,800,o),
(620,800,c),
(675,800,l),
(744,800,o),
(788,780,o),
(817,742,c)
);
},
{
attr = {
lineCapEnd = 1;
lineCapStart = 1;
strokeWidth = 100;
};
closed = 0;
nodes = (
(205,0,l),
(205,660,l),
(205,737,o),
(267,800,o),
(345,800,c),
(361,800,o),
(376,799,o),
(390,797,c)
);
},
{
attr = {
lineCapEnd = 1;
lineCapStart = 1;
strokeWidth = 100;
};
closed = 0;
nodes = (
(100,530,l),
(642,530,l)
);
},
{
attr = {
lineCapEnd = 1;
lineCapStart = 1;
strokeWidth = 100;
};
closed = 0;
nodes = (
(817,742,l),
(817,100,l),
(817,45,o),
(862,0,o),
(917,0,c),
(947,0,l)
);
}
);
width = 1047;
}
);
metricLeft = f;
metricRight = l;
},
{
glyphname = f_f_t;
lastChange = "2023-12-02 18:33:11 +0000";
layers = (
{
layerId = m01;
shapes = (
{
attr = {
lineCapEnd = 1;
lineCapStart = 1;
strokeWidth = 100;
};
closed = 0;
nodes = (
(808,695,l),
(808,100,l),
(808,45,o),
(853,0,o),
(908,0,c),
(938,0,l)
);
},
{
attr = {
lineCapEnd = 1;
lineCapStart = 1;
strokeWidth = 100;
};
closed = 0;
nodes = (
(913,530,l),
(100,530,l)
);
},
{
attr = {
lineCapEnd = 1;
lineCapStart = 1;
strokeWidth = 100;
};
closed = 0;
nodes = (
(480,0,l),
(480,660,l),
(480,737,o),
(543,800,o),
(620,800,c),
(620,800,o),
(652,799,o),
(666,797,c)
);
},
{
attr = {
lineCapEnd = 1;
lineCapStart = 1;
strokeWidth = 100;
};
closed = 0;
nodes = (
(205,0,l),
(205,660,l),
(205,737,o),
(267,800,o),
(345,800,c),
(345,800,o),
(376,799,o),
(390,797,c)
);
}
);
width = 1038;
}
);
metricLeft = f;
metricRight = t;
},
{
glyphname = f_t;
lastChange = "2023-12-02 18:33:14 +0000";
layers = (
{
layerId = m01;
shapes = (
{
attr = {
lineCapEnd = 1;
lineCapStart = 1;
strokeWidth = 100;
};
closed = 0;
nodes = (
(545,695,l),
(545,100,l),
(545,45,o),
(590,0,o),
(645,0,c),
(675,0,l)
);
},
{
attr = {
lineCapEnd = 1;
lineCapStart = 1;
strokeWidth = 100;
};
closed = 0;
nodes = (
(217,0,l),
(217,660,l),
(217,737,o),
(280,800,o),
(357,800,c),
(374,800,o),
(389,799,o),
(402,796,c)
);
},
{
attr = {
lineCapEnd = 1;
lineCapStart = 1;
strokeWidth = 100;
};
closed = 0;
nodes = (
(100,530,l),
(650,530,l)
);
}
);
width = 775;
}
);
metricLeft = f;
metricRight = t;
},
{
glyphname = fi;
lastChange = "2023-12-02 18:33:20 +0000";
layers = (
{
layerId = m01;
shapes = (
{
attr = {
lineCapEnd = 1;
lineCapStart = 1;
strokeWidth = 100;
};
closed = 0;
nodes = (
(100,530,l),
(542,530,l)
);
},
{
attr = {
lineCapEnd = 1;
lineCapStart = 1;
strokeWidth = 100;
};
closed = 0;
nodes = (
(205,0,l),
(205,660,l),
(205,738,o),
(268,800,o),
(345,800,c),
(400,800,l),
(469,800,o),
(513,780,o),
(542,742,c)
);
},
{
attr = {
lineCapEnd = 1;
lineCapStart = 1;
strokeWidth = 100;
};
closed = 0;
nodes = (
(542,530,l),
(542,0,l)
);
}
);
width = 642;
}
);
metricLeft = f;
metricRight = i;
unicode = 64257;
},
{
glyphname = fl;
lastChange = "2023-12-02 18:33:22 +0000";
layers = (
{
layerId = m01;
shapes = (
{
attr = {
lineCapEnd = 1;
lineCapStart = 1;
strokeWidth = 100;
};
closed = 0;
nodes = (
(100,580,l),
(367,580,l)
);
},
{
attr = {
lineCapEnd = 1;
lineCapStart = 1;
strokeWidth = 100;
};
closed = 0;
nodes = (
(206,50,l),
(206,710,l),
(206,787,o),
(268,850,o),
(346,850,c),
(400,850,l),
(469,850,o),
(513,830,o),
(542,791,c)
);
},
{
attr = {
lineCapEnd = 1;
lineCapStart = 1;
strokeWidth = 100;
};
closed = 0;
nodes = (
(542,791,l),
(542,150,l),
(542,95,o),
(587,50,o),
(642,50,c),
(672,50,l)
);
}
);
width = 772;
}
);
metricLeft = f;
metricRight = l;
unicode = 64258;
},
{
glyphname = t_t;
lastChange = "2023-12-02 18:33:28 +0000";
layers = (
{
layerId = m01;
shapes = (
{
attr = {
lineCapEnd = 1;
lineCapStart = 1;
strokeWidth = 100;
};
closed = 0;
nodes = (
(205,695,l),
(205,100,l),
(205,45,o),
(250,0,o),
(305,0,c),
(335,0,l)
);
},
{
attr = {
lineCapEnd = 1;
lineCapStart = 1;
strokeWidth = 100;
};
closed = 0;
nodes = (
(520,695,l),
(520,100,l),
(520,45,o),
(565,0,o),
(620,0,c),
(650,0,l)
);
},
{
attr = {
lineCapEnd = 1;
lineCapStart = 1;
strokeWidth = 100;
};
closed = 0;
nodes = (
(100,530,l),
(625,530,l)
);
}
);
width = 750;
}
);
metricLeft = t;
metricRight = t;
},
{
glyphname = "Be-cy";
lastChange = "2023-12-12 17:15:16 +0000";
layers = (
{
layerId = m01;
shapes = (
{
attr = {
lineCapEnd = 1;
lineCapStart = 1;
strokeWidth = 100;
};
closed = 0;
nodes = (
(100,50,l),
(430,50,l),
(541,50,o),
(630,140,o),
(630,250,c),
(630,360,o),
(541,450,o),
(430,450,c),
(100,450,l)
);
},
{
attr = {
lineCapEnd = 1;
lineCapStart = 1;
strokeWidth = 100;
};
closed = 0;
nodes = (
(530,850,l),
(100,850,l)
);
},
{
attr = {
lineCapEnd = 1;
lineCapStart = 1;
strokeWidth = 100;
};
closed = 0;
nodes = (
(100,850,l),
(100,50,l)
);
}
);
width = 730;
}
);
unicode = 1041;
},
{
glyphname = "Ge-cy";
lastChange = "2023-12-12 17:15:16 +0000";
layers = (
{
layerId = m01;
shapes = (
{
attr = {
lineCapEnd = 1;
lineCapStart = 1;
strokeWidth = 100;
};
closed = 0;
nodes = (
(100,0,l),
(100,800,l)
);
},
{
attr = {
lineCapEnd = 1;
lineCapStart = 1;
strokeWidth = 100;
};
closed = 0;
nodes = (
(100,800,l),
(620,800,l)
);
}
);
width = 720;
}
);
unicode = 1043;
},
{
glyphname = "Geupturn-cy";
lastChange = "2023-12-12 17:15:51 +0000";
layers = (
{
layerId = m01;
shapes = (
{
ref = "Ge-cy";
},
{
attr = {
lineCapEnd = 1;
lineCapStart = 1;
strokeWidth = 100;
};
closed = 0;
nodes = (
(620,800,l),
(620,960,l)
);
}
);
width = 720;
}
);
unicode = 1168;
},
{
glyphname = "De-cy";
lastChange = "2023-12-12 17:15:16 +0000";
layers = (
{
layerId = m01;
shapes = (
{
attr = {
lineCapEnd = 1;
lineCapStart = 1;
strokeWidth = 100;
};
closed = 0;
nodes = (
(800,0,l),
(100,0,l)
);
},
{
attr = {
lineCapEnd = 1;
lineCapStart = 1;
strokeWidth = 100;
};
closed = 0;
nodes = (
(690,0,l),
(690,755,l)
);
},
{
attr = {
lineCapEnd = 1;
lineCapStart = 1;
strokeWidth = 100;
};
closed = 0;
nodes = (
(800,-205,l),
(800,0,l)
);
},
{
attr = {
lineCapEnd = 1;
lineCapStart = 1;
strokeWidth = 100;
};
closed = 0;
nodes = (
(100,0,l),
(100,-205,l)
);
},
{
attr = {
lineCapEnd = 1;
lineCapStart = 1;
strokeWidth = 100;
};
closed = 0;
nodes = (
(310,755,l),
(310,447,o),
(288,246,o),
(200,0,c)
);
},
{
attr = {
lineCapEnd = 1;
lineCapStart = 1;
strokeWidth = 100;
};
closed = 0;
nodes = (
(690,755,l),
(310,755,l)
);
}
);
width = 900;
}
);
unicode = 1044;
},
{
glyphname = "Zhe-cy";
lastChange = "2023-12-12 17:15:16 +0000";
layers = (
{
layerId = m01;
shapes = (
{
attr = {
lineCapEnd = 1;
lineCapStart = 1;
strokeWidth = 100;
};
closed = 0;
nodes = (
(500,800,l),
(500,0,l)
);
},
{
attr = {
lineCapEnd = 1;
lineCapStart = 1;
strokeWidth = 100;
};
closed = 0;
nodes = (
(900,0,l),
(739,285,l),
(699,356,o),
(624,400,o),
(542,400,c),
(459,400,l),
(377,400,o),
(302,356,o),
(262,285,c),
(100,0,l)
);
},
{
attr = {
lineCapEnd = 1;
lineCapStart = 1;
strokeWidth = 100;
};
closed = 0;
nodes = (
(100,800,l),
(262,515,l),
(302,444,o),
(377,400,o),
(459,400,c),
(542,400,l),
(624,400,o),
(699,444,o),
(739,515,c),
(900,800,l)
);
}
);
width = 1000;
}
);
unicode = 1046;
},
{
glyphname = "Ze-cy";
lastChange = "2023-12-12 17:15:16 +0000";
layers = (
{
layerId = m01;
shapes = (
{
attr = {
lineCapEnd = "1";
lineCapStart = "1";
strokeWidth = 100;
};
closed = 0;
nodes = (
(100,733,l),
(156,779,o),
(215,800,o),
(349,800,c),
(380,800,l),
(491,800,o),
(580,710,o),
(580,600,c),
(580,490,o),
(491,400,o),
(380,400,c)
);
},
{
attr = {
lineCapEnd = "1";
lineCapStart = "1";
strokeWidth = 100;
};
closed = 0;
nodes = (
(100,67,l),
(156,21,o),
(215,0,o),
(349,0,c),
(380,0,l),
(491,0,o),
(580,90,o),
(580,200,c),
(580,310,o),
(491,400,o),
(380,400,c)
);
},
{
attr = {
lineCapEnd = "1";
lineCapStart = "1";
strokeWidth = 100;
};
closed = 0;
nodes = (
(227,400,l),
(381,400,l)
);
}
);
width = 680;
}
);
unicode = 1047;
},
{
glyphname = "Ii-cy";
lastChange = "2023-12-12 17:15:16 +0000";
layers = (
{
layerId = m01;
shapes = (
{
attr = {
lineCapEnd = 1;
lineCapStart = 1;
strokeWidth = 100;
};
closed = 0;
nodes = (
(630,800,l),
(100,0,l)
);
},
{
attr = {
lineCapEnd = 1;
lineCapStart = 1;
strokeWidth = 100;
};
closed = 0;
nodes = (
(100,0,l),
(100,800,l)
);
},
{
attr = {
lineCapEnd = 1;
lineCapStart = 1;
strokeWidth = 100;
};
closed = 0;
nodes = (
(630,0,l),
(630,800,l)
);
}
);
width = 730;
}
);
unicode = 1048;
},
{
glyphname = "Iishort-cy";
lastChange = "2023-12-12 17:16:15 +0000";
layers = (
{
layerId = m01;
shapes = (
{
attr = {
lineCapEnd = "1";
lineCapStart = "1";
strokeWidth = 100;
};
closed = 0;
nodes = (
(225,1105,l),
(225,1027,o),
(288,965,o),
(365,965,c),
(443,965,o),
(505,1027,o),
(505,1105,c)
);
},
{
attr = {
lineCapEnd = "1";
lineCapStart = "1";
strokeWidth = 100;
};
closed = 0;
nodes = (
(630,800,l),
(100,0,l)
);
},
{
attr = {
lineCapEnd = "1";
lineCapStart = "1";
strokeWidth = 100;
};
closed = 0;
nodes = (
(100,0,l),
(100,800,l)
);
},
{
attr = {
lineCapEnd = "1";
lineCapStart = "1";
strokeWidth = 100;
};
closed = 0;
nodes = (
(630,0,l),
(630,800,l)
);
}
);
width = 730;
}
);
unicode = 1049;
},
{
glyphname = "Ka-cy";
lastChange = "2023-12-12 17:15:16 +0000";
layers = (
{
layerId = m01;
shapes = (
{
attr = {
lineCapEnd = 1;
lineCapStart = 1;
strokeWidth = 100;
};
closed = 0;
nodes = (
(100,800,l),
(100,0,l)
);
},
{
attr = {
lineCapEnd = 1;
lineCapStart = 1;
strokeWidth = 100;
};
closed = 0;
nodes = (
(100,400,l),
(204,400,l),
(305,400,o),
(399,450,o),
(454,534,c),
(630,800,l)
);
},
{
attr = {
lineCapEnd = 1;
lineCapStart = 1;
strokeWidth = 100;
};
closed = 0;
nodes = (
(100,400,l),
(204,400,l),
(305,400,o),
(399,350,o),
(454,266,c),
(630,0,l)
);
}
);
width = 730;
}
);
unicode = 1050;
},
{
glyphname = "El-cy";
lastChange = "2023-12-12 17:15:16 +0000";
layers = (
{
layerId = m01;
shapes = (
{
attr = {
lineCapEnd = 1;
lineCapStart = 1;
strokeWidth = 100;
};
closed = 0;
nodes = (
(251,800,l),
(251,364,l),
(251,228,o),
(197,97,o),
(100,0,c)
);
},
{
attr = {
lineCapEnd = 1;
lineCapStart = 1;
strokeWidth = 100;
};
closed = 0;
nodes = (
(680,0,l),
(680,800,l)
);
},
{
attr = {
lineCapEnd = 1;
lineCapStart = 1;
strokeWidth = 100;
};
closed = 0;
nodes = (
(680,800,l),
(251,800,l)
);
}
);
width = 780;
}
);
unicode = 1051;
},
{
glyphname = "Pe-cy";
lastChange = "2023-12-12 17:15:16 +0000";
layers = (
{
layerId = m01;
shapes = (
{
attr = {
lineCapEnd = 1;
lineCapStart = 1;
strokeWidth = 100;
};
closed = 0;
nodes = (
(100,800,l),
(630,800,l)
);
},
{
attr = {
lineCapEnd = 1;
lineCapStart = 1;
strokeWidth = 100;
};
closed = 0;
nodes = (
(630,800,l),
(630,0,l)
);
},
{
attr = {
lineCapEnd = 1;
lineCapStart = 1;
strokeWidth = 100;
};
closed = 0;
nodes = (
(100,0,l),
(100,800,l)
);
}
);
width = 730;
}
);
unicode = 1055;
},
{
glyphname = "U-cy";
lastChange = "2023-12-17 13:38:34 +0000";
layers = (
{
anchors = (
{
name = top;
pos = (365,850);
}
);
layerId = m01;
shapes = (
{
attr = {
lineCapEnd = 1;
lineCapStart = 1;
strokeWidth = 100;
};
closed = 0;
nodes = (
(382,270,l),
(100,800,l)
);
},
{
attr = {
lineCapEnd = 1;
lineCapStart = 1;
strokeWidth = 100;
};
closed = 0;
nodes = (
(630,800,l),
(296,86,l),
(272,34,o),
(219,0,o),
(160,0,c),
(100,0,l)
);
}
);
width = 730;
}
);
unicode = 1059;
},
{
glyphname = "Ef-cy";
lastChange = "2023-12-12 17:15:16 +0000";
layers = (
{
layerId = m01;
shapes = (
{
attr = {
lineCapEnd = 1;
lineCapStart = 1;
strokeWidth = 100;
};
closed = 0;
nodes = (
(500,800,l),
(500,0,l)
);
},
{
attr = {
strokeWidth = 100;
};
closed = 1;
nodes = (
(235,100,o),
(100,235,o),
(100,400,c),
(100,566,o),
(235,700,o),
(400,700,c),
(600,700,l),
(766,700,o),
(900,566,o),
(900,400,c),
(900,235,o),
(766,100,o),
(600,100,c),
(400,100,l)
);
}
);
width = 1000;
}
);
unicode = 1060;
},
{
glyphname = "Che-cy";
lastChange = "2023-12-12 17:15:16 +0000";
layers = (
{
layerId = m01;
shapes = (
{
attr = {
lineCapEnd = 1;
lineCapStart = 1;
strokeWidth = 100;
};
closed = 0;
nodes = (
(630,800,l),
(630,300,l),
(380,300,l),
(226,300,o),
(100,425,o),
(100,580,c),
(100,800,l)
);
},
{
attr = {
lineCapEnd = 1;
lineCapStart = 1;
strokeWidth = 100;
};
closed = 0;
nodes = (
(630,300,l),
(630,0,l)
);
}
);
width = 730;
}
);
unicode = 1063;
},
{
glyphname = "Tse-cy";
lastChange = "2023-12-12 17:15:16 +0000";
layers = (
{
layerId = m01;
shapes = (
{
attr = {
lineCapEnd = 1;
lineCapStart = 1;
strokeWidth = 100;
};
closed = 0;
nodes = (
(100,0,l),
(100,800,l)
);
},
{
attr = {
lineCapEnd = 1;
lineCapStart = 1;
strokeWidth = 100;
};
closed = 0;
nodes = (
(630,800,l),
(630,0,l)
);
},
{
attr = {
lineCapEnd = 1;
lineCapStart = 1;
strokeWidth = 100;
};
closed = 0;
nodes = (
(630,0,l),
(730,0,l)
);
},
{
attr = {
lineCapEnd = 1;
lineCapStart = 1;
strokeWidth = 100;
};
closed = 0;
nodes = (
(730,0,l),
(730,-135,l)
);
},
{
attr = {
lineCapEnd = 1;
lineCapStart = 1;
strokeWidth = 100;
};
closed = 0;
nodes = (
(630,0,l),
(100,0,l)
);
}
);
width = 830;
}
);
unicode = 1062;
},
{
glyphname = "Sha-cy";
lastChange = "2023-12-12 17:15:16 +0000";
layers = (
{
layerId = m01;
shapes = (
{
attr = {
lineCapEnd = "1";
lineCapStart = "1";
strokeWidth = 100;
};
closed = 0;
nodes = (
(100,0,l),
(100,800,l)
);
},
{
attr = {
lineCapEnd = "1";
lineCapStart = "1";
strokeWidth = 100;
};
closed = 0;
nodes = (
(500,800,l),
(500,0,l)
);
},
{
attr = {
lineCapEnd = "1";
lineCapStart = "1";
strokeWidth = 100;
};
closed = 0;
nodes = (
(900,800,l),
(900,0,l)
);
},
{
attr = {
lineCapEnd = "1";
lineCapStart = "1";
strokeWidth = 100;
};
closed = 0;
nodes = (
(100,0,l),
(900,0,l)
);
}
);
width = 1000;
}
);
unicode = 1064;
},
{
glyphname = "Shcha-cy";
lastChange = "2023-12-12 17:15:16 +0000";
layers = (
{
layerId = m01;
shapes = (
{
attr = {
lineCapEnd = "1";
lineCapStart = "1";
strokeWidth = 100;
};
closed = 0;
nodes = (
(100,0,l),
(100,800,l)
);
},
{
attr = {
lineCapEnd = "1";
lineCapStart = "1";
strokeWidth = 100;
};
closed = 0;
nodes = (
(500,800,l),
(500,0,l)
);
},
{
attr = {
lineCapEnd = "1";
lineCapStart = "1";
strokeWidth = 100;
};
closed = 0;
nodes = (
(900,800,l),
(900,0,l),
(1000,0,l)
);
},
{
attr = {
lineCapEnd = "1";
lineCapStart = "1";
strokeWidth = 100;
};
closed = 0;
nodes = (
(100,0,l),
(900,0,l)
);
},
{
attr = {
lineCapEnd = "1";
lineCapStart = "1";
strokeWidth = 100;
};
closed = 0;
nodes = (
(1000,0,l),
(1000,-135,l)
);
}
);
width = 1100;
}
);
unicode = 1065;
},
{
glyphname = "Softsign-cy";
lastChange = "2023-12-12 17:17:04 +0000";
layers = (
{
layerId = m01;
shapes = (
{
attr = {
lineCapEnd = "1";
lineCapStart = "1";
strokeWidth = 100;
};
closed = 0;
nodes = (
(100,50,l),
(430,50,l),
(541,50,o),
(630,140,o),
(630,250,c),
(630,360,o),
(541,450,o),
(430,450,c),
(100,450,l)
);
},
{
attr = {
lineCapEnd = "1";
lineCapStart = "1";
strokeWidth = 100;
};
closed = 0;
nodes = (
(100,850,l),
(100,50,l)
);
}
);
width = 730;
}
);
unicode = 1068;
},
{
glyphname = "Yeru-cy";
lastChange = "2023-12-12 17:17:04 +0000";
layers = (
{
layerId = m01;
shapes = (
{
attr = {
lineCapEnd = 1;
lineCapStart = 1;
strokeWidth = 100;
};
closed = 0;
nodes = (
(100,0,l),
(430,0,l),
(540,0,o),
(630,90,o),
(630,200,c),
(630,310,o),
(540,400,o),
(430,400,c),
(100,400,l)
);
},
{
attr = {
lineCapEnd = 1;
lineCapStart = 1;
strokeWidth = 100;
};
closed = 0;
nodes = (
(100,800,l),
(100,0,l)
);
},
{
attr = {
lineCapEnd = 1;
lineCapStart = 1;
strokeWidth = 100;
};
closed = 0;
nodes = (
(820,800,l),
(820,0,l)
);
}
);
width = 920;
}
);
unicode = 1067;
},
{
glyphname = "Hardsign-cy";
lastChange = "2023-12-12 17:17:04 +0000";
layers = (
{
layerId = m01;
shapes = (
{
attr = {
lineCapEnd = 1;
lineCapStart = 1;
strokeWidth = 100;
};
closed = 0;
nodes = (
(280,0,l),
(610,0,l),
(720,0,o),
(810,90,o),
(810,200,c),
(810,310,o),
(720,400,o),
(610,400,c),
(280,400,l)
);
},
{
attr = {
lineCapEnd = 1;
lineCapStart = 1;
strokeWidth = 100;
};
closed = 0;
nodes = (
(280,800,l),
(100,800,l)
);
},
{
attr = {
lineCapEnd = 1;
lineCapStart = 1;
strokeWidth = 100;
};
closed = 0;
nodes = (
(280,800,l),
(280,0,l)
);
}
);
width = 910;
}
);
unicode = 1066;
},
{
glyphname = "E-cy";
lastChange = "2023-12-12 17:17:04 +0000";
layers = (
{
layerId = m01;
shapes = (
{
attr = {
lineCapEnd = "1";
lineCapStart = "1";
strokeWidth = 100;
};
closed = 0;
nodes = (
(100,400,l),
(477,400,l)
);
},
{
attr = {
lineCapEnd = "1";
lineCapStart = "1";
strokeWidth = 100;
};
closed = 0;
nodes = (
(663,152,l),
(611,61,o),
(514,0,o),
(402,0,c),
(235,0,o),
(100,135,o),
(100,302,c),
(100,498,l),
(100,665,o),
(235,800,o),
(402,800,c),
(402,800,l),
(514,800,o),
(612,739,o),
(664,648,c)
);
}
);
width = 764;
}
);
unicode = 1028;
},
{
glyphname = "Ereversed-cy";
lastChange = "2023-12-12 17:17:04 +0000";
layers = (
{
layerId = m01;
shapes = (
{
attr = {
lineCapEnd = 1;
lineCapStart = 1;
strokeWidth = 100;
};
closed = 0;
nodes = (
(664,400,l),
(287,400,l)
);
},
{
attr = {
lineCapEnd = 1;
lineCapStart = 1;
strokeWidth = 100;
};
closed = 0;
nodes = (
(100,648,l),
(152,739,o),
(250,800,o),
(362,800,c),
(362,800,l),
(529,800,o),
(664,665,o),
(664,498,c),
(664,302,l),
(664,135,o),
(529,0,o),
(362,0,c),
(250,0,o),
(153,61,o),
(101,152,c)
);
}
);
width = 764;
}
);
unicode = 1069;
},
{
glyphname = "Yu-cy";
lastChange = "2023-12-12 17:17:14 +0000";
layers = (
{
layerId = m01;
shapes = (
{
attr = {
lineCapEnd = 1;
lineCapStart = 1;
strokeWidth = 100;
};
closed = 0;
nodes = (
(100,0,l),
(100,800,l)
);
},
{
attr = {
lineCapEnd = 1;
lineCapStart = 1;
strokeWidth = 100;
};
closed = 0;
nodes = (
(100,400,l),
(370,400,l)
);
},
{
attr = {
strokeWidth = 100;
};
closed = 1;
nodes = (
(900,121,o),
(781,2,o),
(635,2,c),
(489,2,o),
(370,121,o),
(370,267,c),
(370,537,l),
(370,683,o),
(489,802,o),
(635,802,c),
(781,802,o),
(900,683,o),
(900,537,c),
(900,267,l)
);
}
);
width = 1000;
}
);
unicode = 1070;
},
{
glyphname = "Ya-cy";
lastChange = "2023-12-12 17:17:14 +0000";
layers = (
{
layerId = m01;
shapes = (
{
attr = {
lineCapEnd = "1";
lineCapStart = "1";
strokeWidth = 100;
};
closed = 0;
nodes = (
(375,270,l),
(106,0,l)
);
},
{
attr = {
lineCapEnd = "1";
lineCapStart = "1";
strokeWidth = 100;
};
closed = 0;
nodes = (
(630,0,l),
(630,800,l)
);
},
{
attr = {
lineCapEnd = "1";
lineCapStart = "1";
strokeWidth = 100;
};
closed = 0;
nodes = (
(630,270,l),
(365,270,l),
(219,270,o),
(100,389,o),
(100,535,c),
(100,681,o),
(219,800,o),
(365,800,c),
(630,800,l)
);
}
);
width = 730;
}
);
unicode = 1071;
},
{
glyphname = "be-cy";
lastChange = "2023-11-29 20:55:52 +0000";
layers = (
{
layerId = m01;
shapes = (
{
attr = {
strokeWidth = 100;
};
closed = 1;
nodes = (
(610,119,o),
(492,0,o),
(345,0,c),
(199,0,o),
(80,119,o),
(80,265,c),
(80,411,o),
(199,530,o),
(345,530,c),
(492,530,o),
(610,411,o),
(610,265,c)
);
},
{
attr = {
lineCapEnd = 1;
lineCapStart = 1;
strokeWidth = 100;
};
closed = 0;
nodes = (
(510,800,l),
(345,800,l),
(199,800,o),
(80,681,o),
(80,535,c),
(80,265,l)
);
}
);
width = 690;
}
);
unicode = 1073;
},
{
glyphname = "ve-cy";
lastChange = "2023-11-29 20:57:54 +0000";
layers = (
{
layerId = m01;
shapes = (
{
attr = {
lineCapEnd = 1;
lineCapStart = 1;
strokeWidth = 100;
};
closed = 0;
nodes = (
(80,0,l),
(80,530,l)
);
},
{
attr = {
lineCapEnd = 1;
lineCapStart = 1;
strokeWidth = 100;
};
closed = 0;
nodes = (
(349,265,l),
(80,265,l)
);
},
{
attr = {
lineCapEnd = 1;
lineCapStart = 1;
strokeWidth = 100;
};
closed = 0;
nodes = (
(349,530,l),
(422,530,o),
(480,471,o),
(480,398,c),
(480,324,o),
(422,265,o),
(349,265,c)
);
},
{
attr = {
lineCapEnd = 1;
lineCapStart = 1;
strokeWidth = 100;
};
closed = 0;
nodes = (
(349,265,l),
(422,265,o),
(480,206,o),
(480,133,c),
(480,59,o),
(422,0,o),
(349,0,c)
);
},
{
attr = {
lineCapEnd = 1;
lineCapStart = 1;
strokeWidth = 100;
};
closed = 0;
nodes = (
(80,530,l),
(349,530,l)
);
},
{
attr = {
lineCapEnd = 1;
lineCapStart = 1;
strokeWidth = 100;
};
closed = 0;
nodes = (
(349,0,l),
(80,0,l)
);
}
);
width = 560;
}
);
unicode = 1074;
},
{
glyphname = "ge-cy";
lastChange = "2023-11-29 20:40:48 +0000";
layers = (
{
layerId = m01;
shapes = (
{
attr = {
lineCapEnd = 1;
lineCapStart = 1;
strokeWidth = 100;
};
closed = 0;
nodes = (
(80,0,l),
(80,530,l)
);
},
{
attr = {
lineCapEnd = 1;
lineCapStart = 1;
strokeWidth = 100;
};
closed = 0;
nodes = (
(80,530,l),
(430,530,l)
);
}
);
width = 510;
}
);
unicode = 1075;
},
{
glyphname = "geupturn-cy";
lastChange = "2023-12-02 12:32:07 +0000";
layers = (
{
layerId = m01;
shapes = (
{
ref = "ge-cy";
},
{
attr = {
lineCapEnd = 1;
lineCapStart = 1;
strokeWidth = 100;
};
closed = 0;
nodes = (
(430,530,l),
(430,630,l)
);
}
);
width = 510;
}
);
unicode = 1169;
},
{
glyphname = "de-cy";
lastChange = "2023-11-29 20:57:05 +0000";
layers = (
{
layerId = m01;
shapes = (
{
attr = {
lineCapEnd = 1;
lineCapStart = 1;
strokeWidth = 100;
};
closed = 0;
nodes = (
(600,-1,l),
(80,-1,l)
);
},
{
attr = {
lineCapEnd = 1;
lineCapStart = 1;
strokeWidth = 100;
};
closed = 0;
nodes = (
(225,529,l),
(225,313,o),
(206,171,o),
(135,-1,c)
);
},
{
attr = {
lineCapEnd = 1;
lineCapStart = 1;
strokeWidth = 100;
};
closed = 0;
nodes = (
(535,-1,l),
(535,529,l)
);
},
{
attr = {
lineCapEnd = 1;
lineCapStart = 1;
strokeWidth = 100;
};
closed = 0;
nodes = (
(535,529,l),
(225,529,l)
);
},
{
attr = {
lineCapEnd = 1;
lineCapStart = 1;
strokeWidth = 100;
};
closed = 0;
nodes = (
(80,-1,l),
(80,-101,l)
);
},
{
attr = {
lineCapEnd = 1;
lineCapStart = 1;
strokeWidth = 100;
};
closed = 0;
nodes = (
(600,-101,l),
(600,-1,l)
);
}
);
width = 680;
}
);
unicode = 1076;
},
{
glyphname = "zhe-cy";
lastChange = "2023-11-29 20:41:20 +0000";
layers = (
{
layerId = m01;
shapes = (
{
attr = {
lineCapEnd = 1;
lineCapStart = 1;
strokeWidth = 100;
};
closed = 0;
nodes = (
(430,530,l),
(430,2,l)
);
},
{
attr = {
lineCapEnd = 1;
lineCapStart = 1;
strokeWidth = 100;
};
closed = 0;
nodes = (
(780,0,l),
(673,189,l),
(647,236,o),
(597,265,o),
(543,265,c),
(318,265,l),
(264,265,o),
(214,236,o),
(187,189,c),
(80,0,l)
);
},
{
attr = {
lineCapEnd = 1;
lineCapStart = 1;
strokeWidth = 100;
};
closed = 0;
nodes = (
(80,530,l),
(187,341,l),
(214,294,o),
(264,265,o),
(318,265,c),
(543,265,l),
(597,265,o),
(647,294,o),
(673,341,c),
(780,530,l)
);
}
);
width = 860;
}
);
unicode = 1078;
},
{
glyphname = "ze-cy";
lastChange = "2023-11-29 20:42:40 +0000";
layers = (
{
layerId = m01;
shapes = (
{
attr = {
lineCapEnd = 1;
lineCapStart = 1;
strokeWidth = 100;
};
closed = 0;
nodes = (
(164,265,l),
(298,265,l)
);
},
{
attr = {
lineCapEnd = 1;
lineCapStart = 1;
strokeWidth = 100;
};
closed = 0;
nodes = (
(80,486,l),
(116,516,o),
(156,530,o),
(245,530,c),
(298,530,l),
(372,530,o),
(431,471,o),
(431,397,c),
(431,397,l),
(431,324,o),
(372,265,o),
(298,265,c)
);
},
{
attr = {
lineCapEnd = 1;
lineCapStart = 1;
strokeWidth = 100;
};
closed = 0;
nodes = (
(80,45,l),
(116,14,o),
(156,0,o),
(245,0,c),
(298,0,l),
(372,0,o),
(431,59,o),
(431,132,c),
(431,132,l),
(431,206,o),
(372,265,o),
(298,265,c)
);
}
);
width = 511;
}
);
unicode = 1079;
},
{
glyphname = "ii-cy";
lastChange = "2023-11-29 20:43:03 +0000";
layers = (
{
layerId = m01;
shapes = (
{
attr = {
lineCapEnd = 1;
lineCapStart = 1;
strokeWidth = 100;
};
closed = 0;
nodes = (
(480,530,l),
(80,0,l)
);
},
{
attr = {
lineCapEnd = 1;
lineCapStart = 1;
strokeWidth = 100;
};
closed = 0;
nodes = (
(80,0,l),
(80,530,l)
);
},
{
attr = {
lineCapEnd = 1;
lineCapStart = 1;
strokeWidth = 100;
};
closed = 0;
nodes = (
(480,0,l),
(480,530,l)
);
}
);
width = 560;
}
);
unicode = 1080;
},
{
glyphname = "ka-cy";
lastChange = "2023-11-28 18:14:28 +0000";
layers = (
{
layerId = m01;
shapes = (
{
attr = {
lineCapEnd = 1;
lineCapStart = 1;
strokeWidth = 100;
};
closed = 0;
nodes = (
(80,530,l),
(80,2,l)
);
},
{
attr = {
lineCapEnd = 1;
lineCapStart = 1;
strokeWidth = 100;
};
closed = 0;
nodes = (
(480,0,l),
(373,189,l),
(347,236,o),
(297,265,o),
(243,265,c),
(80,265,l)
);
},
{
attr = {
lineCapEnd = 1;
lineCapStart = 1;
strokeWidth = 100;
};
closed = 0;
nodes = (
(80,265,l),
(243,265,l),
(297,265,o),
(347,294,o),
(373,341,c),
(480,530,l)
);
}
);
width = 554;
}
);
unicode = 1082;
},
{
glyphname = "el-cy";
lastChange = "2023-11-29 20:44:41 +0000";
layers = (
{
layerId = m01;
shapes = (
{
attr = {
lineCapEnd = 1;
lineCapStart = 1;
strokeWidth = 100;
};
closed = 0;
nodes = (
(165,530,l),
(165,242,l),
(165,151,o),
(129,64,o),
(65,0,c)
);
},
{
attr = {
lineCapEnd = 1;
lineCapStart = 1;
strokeWidth = 100;
};
closed = 0;
nodes = (
(545,0,l),
(545,530,l)
);
},
{
attr = {
lineCapEnd = 1;
lineCapStart = 1;
strokeWidth = 100;
};
closed = 0;
nodes = (
(545,530,l),
(165,530,l)
);
}
);
width = 625;
}
);
unicode = 1083;
},
{
glyphname = "em-cy";
lastChange = "2023-11-29 20:45:20 +0000";
layers = (
{
layerId = m01;
shapes = (
{
attr = {
lineCapEnd = 1;
lineCapStart = 1;
strokeWidth = 100;
};
closed = 0;
nodes = (
(330,0,l),
(580,529,l)
);
},
{
attr = {
lineCapEnd = 1;
lineCapStart = 1;
strokeWidth = 100;
};
closed = 0;
nodes = (
(80,1,l),
(80,530,l)
);
},
{
attr = {
lineCapEnd = 1;
lineCapStart = 1;
strokeWidth = 100;
};
closed = 0;
nodes = (
(80,530,l),
(330,0,l)
);
},
{
attr = {
lineCapEnd = 1;
lineCapStart = 1;
strokeWidth = 100;
};
closed = 0;
nodes = (
(580,529,l),
(580,0,l)
);
}
);
width = 660;
}
);
unicode = 1084;
},
{
glyphname = "en-cy";
lastChange = "2023-11-29 20:49:12 +0000";
layers = (
{
layerId = m01;
shapes = (
{
attr = {
lineCapEnd = 1;
lineCapStart = 1;
strokeWidth = 100;
};
closed = 0;
nodes = (
(80,530,l),
(80,0,l)
);
},
{
attr = {
lineCapEnd = 1;
lineCapStart = 1;
strokeWidth = 100;
};
closed = 0;
nodes = (
(480,530,l),
(480,0,l)
);
},
{
attr = {
lineCapEnd = 1;
lineCapStart = 1;
strokeWidth = 100;
};
closed = 0;
nodes = (
(80,266,l),
(480,266,l)
);
}
);
width = 560;
}
);
unicode = 1085;
},
{
glyphname = "pe-cy";
lastChange = "2023-11-29 20:39:00 +0000";
layers = (
{
layerId = m01;
shapes = (
{
attr = {
lineCapEnd = 1;
lineCapStart = 1;
strokeWidth = 100;
};
closed = 0;
nodes = (
(480,530,l),
(80,530,l)
);
},
{
attr = {
lineCapEnd = 1;
lineCapStart = 1;
strokeWidth = 100;
};
closed = 0;
nodes = (
(80,0,l),
(80,530,l)
);
},
{
attr = {
lineCapEnd = 1;
lineCapStart = 1;
strokeWidth = 100;
};
closed = 0;
nodes = (
(480,530,l),
(480,0,l)
);
}
);
width = 560;
}
);
unicode = 1087;
},
{
glyphname = "te-cy";
lastChange = "2023-11-29 20:39:31 +0000";
layers = (
{
layerId = m01;
shapes = (
{
attr = {
lineCapEnd = 1;
lineCapStart = 1;
strokeWidth = 100;
};
closed = 0;
nodes = (
(80,530,l),
(480,530,l)
);
},
{
attr = {
lineCapEnd = 1;
lineCapStart = 1;
strokeWidth = 100;
};
closed = 0;
nodes = (
(280,0,l),
(280,530,l)
);
}
);
width = 560;
}
);
unicode = 1090;
},
{
glyphname = "ef-cy";
lastChange = "2023-11-29 20:52:21 +0000";
layers = (
{
layerId = m01;
shapes = (
{
attr = {
lineCapEnd = 1;
lineCapStart = 1;
strokeWidth = 100;
};
closed = 0;
nodes = (
(445,744,l),
(445,-216,l)
);
},
{
attr = {
strokeWidth = 100;
};
closed = 1;
nodes = (
(198,-1,o),
(80,118,o),
(80,264,c),
(80,410,o),
(198,529,o),
(345,529,c),
(545,529,l),
(691,529,o),
(810,410,o),
(810,264,c),
(810,118,o),
(691,-1,o),
(545,-1,c),
(345,-1,l)
);
}
);
width = 890;
}
);
unicode = 1092;
},
{
glyphname = "che-cy";
lastChange = "2023-11-29 20:40:20 +0000";
layers = (
{
layerId = m01;
shapes = (
{
attr = {
lineCapEnd = 1;
lineCapStart = 1;
strokeWidth = 100;
};
closed = 0;
nodes = (
(480,530,l),
(480,230,l),
(230,230,l),
(147,230,o),
(80,297,o),
(80,380,c),
(80,530,l)
);
},
{
attr = {
lineCapEnd = 1;
lineCapStart = 1;
strokeWidth = 100;
};
closed = 0;
nodes = (
(480,498,l),
(480,0,l)
);
}
);
width = 560;
}
);
unicode = 1095;
},
{
glyphname = "tse-cy";
lastChange = "2023-11-29 21:00:11 +0000";
layers = (
{
layerId = m01;
shapes = (
{
attr = {
lineCapEnd = 1;
lineCapStart = 1;
strokeWidth = 100;
};
closed = 0;
nodes = (
(480,-1,l),
(80,-1,l)
);
},
{
attr = {
lineCapEnd = 1;
lineCapStart = 1;
strokeWidth = 100;
};
closed = 0;
nodes = (
(80,-1,l),
(80,529,l)
);
},
{
attr = {
lineCapEnd = 1;
lineCapStart = 1;
strokeWidth = 100;
};
closed = 0;
nodes = (
(480,529,l),
(480,-1,l)
);
},
{
attr = {
lineCapEnd = 1;
lineCapStart = 1;
strokeWidth = 100;
};
closed = 0;
nodes = (
(480,-1,l),
(580,-1,l)
);
},
{
attr = {
lineCapEnd = 1;
lineCapStart = 1;
strokeWidth = 100;
};
closed = 0;
nodes = (
(580,-1,l),
(580,-136,l)
);
}
);
width = 660;
}
);
unicode = 1094;
},
{
glyphname = "sha-cy";
lastChange = "2023-12-02 12:36:57 +0000";
layers = (
{
layerId = m01;
shapes = (
{
attr = {
lineCapEnd = 1;
lineCapStart = 1;
strokeWidth = 100;
};
closed = 0;
nodes = (
(80,0,l),
(80,530,l)
);
},
{
attr = {
lineCapEnd = 1;
lineCapStart = 1;
strokeWidth = 100;
};
closed = 0;
nodes = (
(410,530,l),
(410,0,l)
);
},
{
attr = {
lineCapEnd = 1;
lineCapStart = 1;
strokeWidth = 100;
};
closed = 0;
nodes = (
(740,530,l),
(740,0,l)
);
},
{
attr = {
lineCapEnd = 1;
lineCapStart = 1;
strokeWidth = 100;
};
closed = 0;
nodes = (
(80,0,l),
(740,0,l)
);
}
);
width = 820;
}
);
unicode = 1096;
},
{
glyphname = "shcha-cy";
lastChange = "2023-12-02 12:38:30 +0000";
layers = (
{
layerId = m01;
shapes = (
{
ref = "sha-cy";
},
{
attr = {
lineCapEnd = 1;
lineCapStart = 1;
strokeWidth = 100;
};
closed = 0;
nodes = (
(837,0,l),
(837,-117,l)
);
},
{
attr = {
lineCapEnd = 1;
lineCapStart = 1;
strokeWidth = 100;
};
closed = 0;
nodes = (
(737,0,l),
(837,0,l)
);
}
);
width = 917;
}
);
unicode = 1097;
},
{
glyphname = "softsign-cy";
lastChange = "2023-12-02 12:40:15 +0000";
layers = (
{
layerId = m01;
shapes = (
{
attr = {
lineCapEnd = 1;
lineCapStart = 1;
strokeWidth = 100;
};
closed = 0;
nodes = (
(80,0,l),
(349,0,l),
(421,0,o),
(480,59,o),
(480,133,c),
(480,206,o),
(421,265,o),
(349,265,c),
(80,265,l)
);
},
{
attr = {
lineCapEnd = 1;
lineCapStart = 1;
strokeWidth = 100;
};
closed = 0;
nodes = (
(80,530,l),
(80,0,l)
);
}
);
width = 560;
}
);
unicode = 1100;
},
{
glyphname = "yeru-cy";
lastChange = "2023-12-02 12:27:48 +0000";
layers = (
{
layerId = m01;
shapes = (
{
attr = {
lineCapEnd = 1;
lineCapStart = 1;
strokeWidth = 100;
};
closed = 0;
nodes = (
(80,0,l),
(349,0,l),
(421,0,o),
(480,59,o),
(480,133,c),
(480,206,o),
(421,265,o),
(349,265,c),
(80,265,l)
);
},
{
attr = {
lineCapEnd = 1;
lineCapStart = 1;
strokeWidth = 100;
};
closed = 0;
nodes = (
(80,530,l),
(80,0,l)
);
},
{
attr = {
lineCapEnd = 1;
lineCapStart = 1;
strokeWidth = 100;
};
closed = 0;
nodes = (
(660,530,l),
(660,0,l)
);
}
);
width = 740;
}
);
unicode = 1099;
},
{
glyphname = "hardsign-cy";
lastChange = "2023-12-02 12:40:25 +0000";
layers = (
{
layerId = m01;
shapes = (
{
pos = (119,0);
ref = "softsign-cy";
},
{
attr = {
lineCapEnd = 1;
lineCapStart = 1;
strokeWidth = 100;
};
closed = 0;
nodes = (
(199,530,l),
(79,530,l)
);
}
);
width = 679;
}
);
unicode = 1098;
},
{
glyphname = "e-cy";
lastChange = "2023-12-02 12:28:54 +0000";
layers = (
{
layerId = m01;
shapes = (
{
attr = {
lineCapEnd = "1";
lineCapStart = "1";
strokeWidth = 100;
};
closed = 0;
nodes = (
(80,265,l),
(330,265,l)
);
},
{
attr = {
lineCapEnd = "1";
lineCapStart = "1";
strokeWidth = 100;
};
closed = 0;
nodes = (
(453,100,l),
(419,40,o),
(354,0,o),
(280,0,c),
(169,0,o),
(80,90,o),
(80,200,c),
(80,330,l),
(80,440,o),
(169,530,o),
(280,530,c),
(354,530,o),
(419,489,o),
(454,429,c)
);
}
);
width = 534;
}
);
unicode = 1108;
},
{
glyphname = "ereversed-cy";
lastChange = "2023-12-02 12:28:40 +0000";
layers = (
{
layerId = m01;
shapes = (
{
attr = {
lineCapEnd = 1;
lineCapStart = 1;
strokeWidth = 100;
};
closed = 0;
nodes = (
(454,265,l),
(204,265,l)
);
},
{
attr = {
lineCapEnd = 1;
lineCapStart = 1;
strokeWidth = 100;
};
closed = 0;
nodes = (
(80,429,l),
(115,489,o),
(180,530,o),
(254,530,c),
(365,530,o),
(454,440,o),
(454,330,c),
(454,200,l),
(454,90,o),
(365,0,o),
(254,0,c),
(180,0,o),
(115,40,o),
(81,100,c)
);
}
);
width = 534;
}
);
unicode = 1101;
},
{
glyphname = "yu-cy";
lastChange = "2023-12-02 12:34:37 +0000";
layers = (
{
layerId = m01;
shapes = (
{
attr = {
lineCapEnd = 1;
lineCapStart = 1;
strokeWidth = 100;
};
closed = 0;
nodes = (
(80,0,l),
(80,530,l)
);
},
{
attr = {
lineCapEnd = 1;
lineCapStart = 1;
strokeWidth = 100;
};
closed = 0;
nodes = (
(80,265,l),
(340,265,l)
);
},
{
attr = {
lineCapEnd = 1;
lineCapStart = 1;
strokeWidth = 100;
};
closed = 0;
nodes = (
(540,0,l),
(430,0,o),
(340,90,o),
(340,200,c),
(340,330,l),
(340,440,o),
(430,530,o),
(540,530,c),
(540,530,l),
(650,530,o),
(740,440,o),
(740,330,c),
(740,200,l),
(740,90,o),
(650,0,o),
(540,0,c)
);
}
);
width = 820;
}
);
unicode = 1102;
},
{
glyphname = "ya-cy";
lastChange = "2023-11-29 21:01:40 +0000";
layers = (
{
layerId = m01;
shapes = (
{
attr = {
lineCapEnd = 1;
lineCapStart = 1;
strokeWidth = 100;
};
closed = 0;
nodes = (
(450,565.184,l),
(227.613,565.184,l),
(129.52,565.184,o),
(50,485.492,o),
(50,387.187,c),
(50,288.883,o),
(129.52,209.191,o),
(227.613,209.191,c),
(450,209.191,l)
);
},
{
attr = {
lineCapEnd = 1;
lineCapStart = 1;
strokeWidth = 100;
};
closed = 0;
nodes = (
(227.614,209.191,l),
(54.118,35.317,l)
);
},
{
attr = {
lineCapEnd = 1;
lineCapStart = 1;
strokeWidth = 100;
};
closed = 0;
nodes = (
(450,35.184,l),
(450,565.184,l)
);
}
);
width = 600;
}
);
unicode = 1103;
},
{
glyphname = Delta;
lastChange = "2023-12-17 13:28:25 +0000";
layers = (
{
layerId = m01;
shapes = (
{
attr = {
lineCapEnd = 1;
lineCapStart = 1;
strokeWidth = 100;
};
closed = 0;
nodes = (
(365,800,l),
(630,0,l)
);
},
{
attr = {
lineCapEnd = 1;
lineCapStart = 1;
strokeWidth = 100;
};
closed = 0;
nodes = (
(630,0,l),
(100,0,l)
);
},
{
attr = {
lineCapEnd = 1;
lineCapStart = 1;
strokeWidth = 100;
};
closed = 0;
nodes = (
(100,0,l),
(365,800,l)
);
}
);
width = 730;
}
);
unicode = 916;
},
{
glyphname = Theta;
lastChange = "2023-12-02 12:47:02 +0000";
layers = (
{
layerId = m01;
shapes = (
{
ref = O;
},
{
attr = {
lineCapEnd = 1;
lineCapStart = 1;
strokeWidth = 100;
};
closed = 0;
nodes = (
(225,400,l),
(465,400,l)
);
}
);
width = 690;
}
);
unicode = 920;
},
{
glyphname = Lambda;
lastChange = "2023-12-12 17:17:41 +0000";
layers = (
{
layerId = m01;
shapes = (
{
attr = {
lineCapEnd = 1;
lineCapStart = 1;
strokeWidth = 100;
};
closed = 0;
nodes = (
(365,800,l),
(630,0,l)
);
},
{
attr = {
lineCapEnd = 1;
lineCapStart = 1;
strokeWidth = 100;
};
closed = 0;
nodes = (
(100,0,l),
(365,800,l)
);
}
);
width = 730;
}
);
unicode = 923;
},
{
glyphname = Xi;
lastChange = "2023-12-12 17:17:41 +0000";
layers = (
{
layerId = m01;
shapes = (
{
attr = {
lineCapEnd = 1;
lineCapStart = 1;
strokeWidth = 100;
};
closed = 0;
nodes = (
(150,400,l),
(450,400,l)
);
},
{
attr = {
lineCapEnd = 1;
lineCapStart = 1;
strokeWidth = 100;
};
closed = 0;
nodes = (
(100,800,l),
(500,800,l)
);
},
{
attr = {
lineCapEnd = 1;
lineCapStart = 1;
strokeWidth = 100;
};
closed = 0;
nodes = (
(500,0,l),
(100,0,l)
);
}
);
width = 600;
}
);
unicode = 926;
},
{
glyphname = Pi;
kernLeft = uppdercaseStraight;
kernRight = uppdercaseStraight;
lastChange = "2023-12-17 13:28:35 +0000";
layers = (
{
layerId = m01;
shapes = (
{
attr = {
lineCapEnd = 1;
lineCapStart = 1;
strokeWidth = 100;
};
closed = 0;
nodes = (
(610,800,l),
(610,0,l)
);
},
{
attr = {
lineCapEnd = 1;
lineCapStart = 1;
strokeWidth = 100;
};
closed = 0;
nodes = (
(80,0,l),
(80,800,l)
);
},
{
attr = {
lineCapEnd = 1;
lineCapStart = 1;
strokeWidth = 100;
};
closed = 0;
nodes = (
(80,800,l),
(610,800,l)
);
}
);
width = 690;
}
);
unicode = 928;
},
{
glyphname = Sigma;
lastChange = "2023-12-17 13:28:39 +0000";
layers = (
{
layerId = m01;
shapes = (
{
attr = {
lineCapEnd = 1;
lineCapStart = 1;
strokeWidth = 100;
};
closed = 0;
nodes = (
(498,400,l),
(100,0,l)
);
},
{
attr = {
lineCapEnd = 1;
lineCapStart = 1;
strokeWidth = 100;
};
closed = 0;
nodes = (
(100,0,l),
(630,0,l)
);
},
{
attr = {
lineCapEnd = 1;
lineCapStart = 1;
strokeWidth = 100;
};
closed = 0;
nodes = (
(630,800,l),
(100,800,l)
);
},
{
attr = {
lineCapEnd = 1;
lineCapStart = 1;
strokeWidth = 100;
};
closed = 0;
nodes = (
(100,800,l),
(498,400,l)
);
}
);
width = 730;
}
);
unicode = 931;
},
{
glyphname = Psi;
lastChange = "2023-12-12 17:17:41 +0000";
layers = (
{
layerId = m01;
shapes = (
{
attr = {
lineCapEnd = 1;
lineCapStart = 1;
strokeWidth = 100;
};
closed = 0;
nodes = (
(500,300,l),
(380,300,l),
(226,300,o),
(100,425,o),
(100,580,c),
(100,800,l)
);
},
{
attr = {
lineCapEnd = 1;
lineCapStart = 1;
strokeWidth = 100;
};
closed = 0;
nodes = (
(500,300,l),
(620,300,l),
(775,300,o),
(900,425,o),
(900,580,c),
(900,800,l)
);
},
{
attr = {
lineCapEnd = 1;
lineCapStart = 1;
strokeWidth = 100;
};
closed = 0;
nodes = (
(500,800,l),
(500,0,l)
);
}
);
width = 1000;
}
);
unicode = 936;
},
{
glyphname = Omega;
lastChange = "2023-12-17 13:27:54 +0000";
layers = (
{
anchors = (
{
name = bottom;
pos = (500,0);
},
{
name = topleft;
pos = (148,850);
}
);
layerId = m01;
shapes = (
{
attr = {
lineCapEnd = 1;
lineCapStart = 1;
strokeWidth = 100;
};
closed = 0;
nodes = (
(367,23,l),
(212,77,o),
(100,226,o),
(100,400,c),
(100,621,o),
(279,800,o),
(500,800,c),
(721,800,o),
(900,621,o),
(900,400,c),
(900,226,o),
(789,77,o),
(633,23,c)
);
},
{
attr = {
lineCapEnd = 1;
lineCapStart = 1;
strokeWidth = 100;
};
closed = 0;
nodes = (
(633,0,l),
(900,0,l)
);
},
{
attr = {
lineCapEnd = 1;
lineCapStart = 1;
strokeWidth = 100;
};
closed = 0;
nodes = (
(100,0,l),
(367,0,l)
);
},
{
attr = {
lineCapEnd = 1;
lineCapStart = 1;
strokeWidth = 100;
};
closed = 0;
nodes = (
(633,23,l),
(633,0,l)
);
},
{
attr = {
lineCapEnd = 1;
lineCapStart = 1;
strokeWidth = 100;
};
closed = 0;
nodes = (
(367,0,l),
(367,23,l)
);
}
);
width = 1000;
}
);
unicode = 937;
},
{
glyphname = alpha;
lastChange = "2023-12-02 13:02:23 +0000";
layers = (
{
layerId = m01;
shapes = (
{
attr = {
lineCapEnd = 1;
lineCapStart = 1;
strokeWidth = 100;
};
closed = 0;
nodes = (
(560,0,l),
(515,0,o),
(480,36,o),
(480,80,c),
(480,530,l)
);
},
{
attr = {
lineCapEnd = 1;
lineCapStart = 1;
strokeWidth = 100;
};
closed = 0;
nodes = (
(480,200,l),
(480,90,o),
(390,0,o),
(280,0,c),
(169,0,o),
(80,90,o),
(80,200,c),
(80,330,l),
(80,440,o),
(169,530,o),
(280,530,c),
(390,530,o),
(480,440,o),
(480,330,c)
);
}
);
width = 640;
}
);
unicode = 945;
},
{
glyphname = beta;
lastChange = "2023-12-02 13:01:30 +0000";
layers = (
{
layerId = m01;
shapes = (
{
attr = {
lineCapEnd = 1;
lineCapStart = 1;
strokeWidth = 100;
};
closed = 0;
nodes = (
(80,67,l),
(119,15,o),
(197,0,o),
(280,0,c),
(390,0,o),
(480,90,o),
(480,200,c),
(480,200,l),
(480,310,o),
(390,400,o),
(280,400,c)
);
},
{
attr = {
lineCapEnd = 1;
lineCapStart = 1;
strokeWidth = 100;
};
closed = 0;
nodes = (
(80,-270,l),
(80,600,l),
(80,710,o),
(169,800,o),
(280,800,c),
(280,800,l),
(390,800,o),
(480,710,o),
(480,600,c),
(480,600,l),
(480,489,o),
(390,400,o),
(280,400,c)
);
}
);
width = 560;
}
);
unicode = 946;
},
{
glyphname = gamma;
lastChange = "2023-12-02 12:59:52 +0000";
layers = (
{
layerId = m01;
shapes = (
{
attr = {
lineCapEnd = 1;
lineCapStart = 1;
strokeWidth = 100;
};
closed = 0;
nodes = (
(280,30,l),
(80,530,l)
);
},
{
attr = {
lineCapEnd = 1;
lineCapStart = 1;
strokeWidth = 100;
};
closed = 0;
nodes = (
(280,-270,l),
(280,30,l)
);
},
{
attr = {
lineCapEnd = 1;
lineCapStart = 1;
strokeWidth = 100;
};
closed = 0;
nodes = (
(480,530,l),
(280,30,l)
);
}
);
width = 560;
}
);
unicode = 947;
},
{
glyphname = delta;
lastChange = "2023-12-02 12:55:07 +0000";
layers = (
{
layerId = m01;
shapes = (
{
attr = {
lineCapEnd = 1;
lineCapStart = 1;
strokeWidth = 100;
};
closed = 0;
nodes = (
(313,481,l),
(117,382,o),
(80,327,o),
(80,199,c),
(80,71,o),
(184,0,o),
(313,0,c),
(441,0,o),
(545,71,o),
(545,199,c),
(545,356,o),
(423,414,o),
(313,481,c),
(248,519,o),
(163,541,o),
(169,628,c),
(174,692,o),
(226,745,o),
(325,745,c),
(385,745,o),
(427,723,o),
(483,675,c)
);
}
);
width = 625;
}
);
unicode = 948;
},
{
glyphname = epsilon;
lastChange = "2023-12-02 17:58:45 +0000";
layers = (
{
layerId = m01;
shapes = (
{
attr = {
lineCapEnd = 1;
lineCapStart = 1;
strokeWidth = 100;
};
closed = 0;
nodes = (
(449,45,l),
(413,14,o),
(373,0,o),
(285,0,c),
(232,0,l),
(159,0,o),
(100,59,o),
(100,132,c),
(100,132,l),
(100,206,o),
(159,265,o),
(232,265,c)
);
},
{
attr = {
lineCapEnd = 1;
lineCapStart = 1;
strokeWidth = 100;
};
closed = 0;
nodes = (
(450,486,l),
(413,516,o),
(373,530,o),
(285,530,c),
(232,530,l),
(159,530,o),
(100,471,o),
(100,397,c),
(100,397,l),
(100,324,o),
(159,265,o),
(232,265,c)
);
},
{
attr = {
lineCapEnd = 1;
lineCapStart = 1;
strokeWidth = 100;
};
closed = 0;
nodes = (
(366,265,l),
(232,265,l)
);
}
);
width = 550;
}
);
unicode = 949;
},
{
glyphname = zeta;
lastChange = "2023-12-02 13:03:39 +0000";
layers = (
{
layerId = m01;
shapes = (
{
attr = {
lineCapEnd = 1;
lineCapStart = 1;
strokeWidth = 100;
};
closed = 0;
nodes = (
(430,-233,l),
(455,-216,o),
(473,-189,o),
(479,-158,c),
(479,-158,l),
(490,-94,o),
(447,-33,o),
(382,-22,c),
(382,-22,o),
(271,-2,o),
(233,5,c),
(144,20,o),
(80,105,o),
(80,199,c),
(80,199,l),
(80,617,o),
(480,800,o),
(480,800,c)
);
},
{
attr = {
lineCapEnd = 1;
lineCapStart = 1;
strokeWidth = 100;
};
closed = 0;
nodes = (
(480,800,l),
(80,800,l)
);
}
);
width = 561;
}
);
unicode = 950;
},
{
glyphname = eta;
lastChange = "2023-12-02 17:59:06 +0000";
layers = (
{
layerId = m01;
shapes = (
{
attr = {
lineCapEnd = 1;
lineCapStart = 1;
strokeWidth = 100;
};
closed = 0;
nodes = (
(500,-270,l),
(500,330,l),
(500,440,o),
(411,530,o),
(300,530,c),
(300,530,l),
(190,530,o),
(100,440,o),
(100,330,c)
);
},
{
attr = {
lineCapEnd = 1;
lineCapStart = 1;
strokeWidth = 100;
};
closed = 0;
nodes = (
(100,0,l),
(100,530,l)
);
}
);
width = 600;
}
);
unicode = 951;
},
{
glyphname = theta;
lastChange = "2023-12-02 17:59:54 +0000";
layers = (
{
layerId = m01;
shapes = (
{
ref = o;
},
{
attr = {
strokeWidth = 100;
};
closed = 0;
nodes = (
(80,265,l),
(480,265,l)
);
}
);
width = 560;
}
);
unicode = 952;
},
{
glyphname = iota;
lastChange = "2023-12-17 16:01:27 +0000";
layers = (
{
anchors = (
{
name = top;
pos = (100,580);
}
);
layerId = m01;
shapes = (
{
attr = {
lineCapEnd = "1";
lineCapStart = "1";
strokeWidth = 100;
};
closed = 0;
nodes = (
(300,35,l),
(278,13,o),
(249,0,o),
(217,0,c),
(217,0,l),
(152,0,o),
(100,53,o),
(100,118,c),
(100,530,l)
);
}
);
width = 400;
}
);
unicode = 953;
},
{
glyphname = kappa;
lastChange = "2023-12-02 17:57:15 +0000";
layers = (
{
layerId = m01;
shapes = (
{
attr = {
lineCapEnd = 1;
lineCapStart = 1;
strokeWidth = 100;
};
closed = 0;
nodes = (
(100,568,l),
(100,38,l)
);
},
{
attr = {
lineCapEnd = 1;
lineCapStart = 1;
strokeWidth = 100;
};
closed = 0;
nodes = (
(100,222,l),
(500,566,l)
);
},
{
attr = {
lineCapEnd = 1;
lineCapStart = 1;
strokeWidth = 100;
};
closed = 0;
nodes = (
(500,38,l),
(193,303,l)
);
}
);
width = 600;
}
);
unicode = 954;
},
{
glyphname = lambda;
lastChange = "2023-12-02 17:58:05 +0000";
layers = (
{
layerId = m01;
shapes = (
{
attr = {
lineCapEnd = 1;
lineCapStart = 1;
strokeWidth = 100;
};
closed = 0;
nodes = (
(384,530,l),
(171,0,l)
);
},
{
attr = {
lineCapEnd = 1;
lineCapStart = 1;
strokeWidth = 100;
};
closed = 0;
nodes = (
(100,732,l),
(113,759,o),
(136,781,o),
(167,792,c),
(167,792,l),
(228,814,o),
(295,781,o),
(317,720,c),
(571,0,l)
);
}
);
width = 671;
}
);
unicode = 955;
},
{
glyphname = mu;
lastChange = "2023-12-02 18:00:39 +0000";
layers = (
{
layerId = m01;
shapes = (
{
attr = {
lineCapEnd = 1;
lineCapStart = 1;
strokeWidth = 100;
};
closed = 0;
nodes = (
(100,530,l),
(100,200,l),
(100,90,o),
(189,0,o),
(300,0,c),
(300,0,l),
(410,0,o),
(500,90,o),
(500,200,c),
(500,530,l)
);
},
{
attr = {
lineCapEnd = 1;
lineCapStart = 1;
strokeWidth = 100;
};
closed = 0;
nodes = (
(500,200,l),
(500,0,l)
);
},
{
attr = {
lineCapEnd = 1;
lineCapStart = 1;
strokeWidth = 100;
};
closed = 0;
nodes = (
(100,200,l),
(100,-270,l)
);
}
);
width = 600;
}
);
unicode = 956;
},
{
glyphname = nu;
lastChange = "2023-12-02 18:02:19 +0000";
layers = (
{
layerId = m01;
shapes = (
{
attr = {
lineCapEnd = 1;
lineCapStart = 1;
strokeWidth = 100;
};
closed = 0;
nodes = (
(300,0,l),
(100,530,l)
);
},
{
attr = {
lineCapEnd = 1;
lineCapStart = 1;
strokeWidth = 100;
};
closed = 0;
nodes = (
(500,530,l),
(300,0,l)
);
}
);
width = 600;
}
);
unicode = 957;
},
{
glyphname = xi;
lastChange = "2023-12-02 18:03:16 +0000";
layers = (
{
layerId = m01;
shapes = (
{
attr = {
lineCapEnd = 1;
lineCapStart = 1;
strokeWidth = 100;
};
closed = 0;
nodes = (
(400,400,l),
(300,400,l)
);
},
{
attr = {
lineCapEnd = 1;
lineCapStart = 1;
strokeWidth = 100;
};
closed = 0;
nodes = (
(500,733,l),
(451,786,o),
(404,800,o),
(300,800,c),
(190,800,o),
(100,710,o),
(100,600,c),
(100,600,l),
(100,489,o),
(190,400,o),
(300,400,c)
);
},
{
attr = {
lineCapEnd = 1;
lineCapStart = 1;
strokeWidth = 100;
};
closed = 0;
nodes = (
(450,-232,l),
(475,-215,o),
(493,-189,o),
(498,-157,c),
(498,-157,l),
(510,-93,o),
(467,-32,o),
(402,-21,c),
(402,-21,o),
(290,-1,o),
(253,6,c),
(164,21,o),
(100,106,o),
(100,200,c),
(100,200,l),
(100,310,o),
(190,400,o),
(300,400,c)
);
}
);
width = 600;
}
);
unicode = 958;
},
{
glyphname = pi;
lastChange = "2023-12-02 12:54:02 +0000";
layers = (
{
layerId = m01;
shapes = (
{
attr = {
lineCapEnd = 1;
lineCapStart = 1;
strokeWidth = 100;
};
closed = 0;
nodes = (
(80,530,l),
(680,530,l)
);
},
{
attr = {
lineCapEnd = 1;
lineCapStart = 1;
strokeWidth = 100;
};
closed = 0;
nodes = (
(230,530,l),
(230,0,l)
);
},
{
attr = {
lineCapEnd = 1;
lineCapStart = 1;
strokeWidth = 100;
};
closed = 0;
nodes = (
(680,35,l),
(659,13,o),
(630,0,o),
(597,0,c),
(597,0,l),
(533,0,o),
(480,53,o),
(480,118,c),
(480,530,l)
);
}
);
width = 760;
}
);
unicode = 960;
},
{
glyphname = rho;
lastChange = "2023-12-16 13:20:55 +0000";
layers = (
{
layerId = m01;
shapes = (
{
attr = {
lineCapEnd = 1;
lineCapStart = 1;
strokeWidth = 100;
};
closed = 0;
nodes = (
(100,200,l),
(100,90,o),
(190,0,o),
(300,0,cs),
(411,0,o),
(500,90,o),
(500,200,cs),
(500,330,ls),
(500,440,o),
(411,530,o),
(300,530,cs),
(190,530,o),
(110,440,o),
(100,330,cs)
);
},
{
attr = {
lineCapEnd = 1;
lineCapStart = 1;
strokeWidth = 100;
};
closed = 0;
nodes = (
(100,330,l),
(100,-270,l)
);
}
);
width = 600;
}
);
unicode = 961;
},
{
glyphname = sigmafinal;
lastChange = "2023-12-02 12:53:21 +0000";
layers = (
{
layerId = m01;
shapes = (
{
attr = {
lineCapEnd = 1;
lineCapStart = 1;
strokeWidth = 100;
};
closed = 0;
nodes = (
(430,-234,l),
(454,-216,o),
(473,-190,o),
(478,-158,c),
(478,-158,l),
(489,-94,o),
(446,-33,o),
(382,-22,c),
(382,-22,o),
(270,-2,o),
(232,5,c),
(144,20,o),
(80,105,o),
(80,199,c),
(80,330,l),
(80,440,o),
(169,530,o),
(280,530,c),
(354,530,o),
(387,521,o),
(444,463,c)
);
}
);
width = 560;
}
);
unicode = 962;
},
{
glyphname = sigma;
lastChange = "2023-12-16 13:18:04 +0000";
layers = (
{
layerId = m01;
shapes = (
{
attr = {
strokeWidth = 100;
};
closed = 1;
nodes = (
(411,530,o),
(500,440,o),
(500,330,c),
(500,200,l),
(500,90,o),
(411,0,o),
(300,0,c),
(300,0,l),
(190,0,o),
(100,90,o),
(100,200,c),
(100,330,l),
(100,440,o),
(190,530,o),
(300,530,c)
);
},
{
attr = {
lineCapEnd = 1;
lineCapStart = 1;
strokeWidth = 100;
};
closed = 0;
nodes = (
(600,530,l),
(300,530,l)
);
}
);
width = 650;
}
);
unicode = 963;
},
{
glyphname = tau;
lastChange = "2023-12-02 12:52:23 +0000";
layers = (
{
layerId = m01;
shapes = (
{
attr = {
lineCapEnd = 1;
lineCapStart = 1;
strokeWidth = 100;
};
closed = 0;
nodes = (
(80,530,l),
(480,530,l)
);
},
{
attr = {
lineCapEnd = 1;
lineCapStart = 1;
strokeWidth = 100;
};
closed = 0;
nodes = (
(480,35,l),
(459,13,o),
(430,0,o),
(397,0,c),
(397,0,l),
(333,0,o),
(280,53,o),
(280,118,c),
(280,530,l)
);
}
);
width = 560;
}
);
unicode = 964;
},
{
glyphname = upsilon;
lastChange = "2023-12-17 16:00:06 +0000";
layers = (
{
anchors = (
{
name = top;
pos = (280,580);
}
);
layerId = m01;
shapes = (
{
attr = {
lineCapEnd = 1;
lineCapStart = 1;
strokeWidth = 100;
};
closed = 0;
nodes = (
(280,0,l),
(391,0,o),
(480,90,o),
(480,200,c),
(480,398,o),
(440,530,o),
(440,530,c)
);
},
{
attr = {
lineCapEnd = 1;
lineCapStart = 1;
strokeWidth = 100;
};
closed = 0;
nodes = (
(80,530,l),
(80,200,l),
(80,90,o),
(170,0,o),
(280,0,c)
);
}
);
width = 560;
}
);
unicode = 965;
},
{
glyphname = chi;
lastChange = "2023-12-16 13:19:05 +0000";
layers = (
{
layerId = m01;
shapes = (
{
attr = {
lineCapEnd = 1;
lineCapStart = 1;
strokeWidth = 100;
};
closed = 0;
nodes = (
(426,130,l),
(658,-219,l),
(679,-251,o),
(714,-270,o),
(753,-270,c)
);
},
{
attr = {
lineCapEnd = 1;
lineCapStart = 1;
strokeWidth = 100;
};
closed = 0;
nodes = (
(426,130,l),
(195,479,l),
(174,511,o),
(138,530,o),
(100,530,c)
);
},
{
attr = {
lineCapEnd = 1;
lineCapStart = 1;
strokeWidth = 100;
};
closed = 0;
nodes = (
(691,530,l),
(161,-270,l)
);
}
);
width = 853;
}
);
unicode = 967;
},
{
glyphname = psi;
lastChange = "2023-12-16 13:19:32 +0000";
layers = (
{
layerId = m01;
shapes = (
{
attr = {
lineCapEnd = 1;
lineCapStart = 1;
strokeWidth = 100;
};
closed = 0;
nodes = (
(500,0,l),
(380,0,l),
(226,0,o),
(100,125,o),
(100,280,c),
(100,500,l)
);
},
{
attr = {
lineCapEnd = 1;
lineCapStart = 1;
strokeWidth = 100;
};
closed = 0;
nodes = (
(500,0,l),
(620,0,l),
(775,0,o),
(900,125,o),
(900,280,c),
(900,500,l)
);
},
{
attr = {
lineCapEnd = 1;
lineCapStart = 1;
strokeWidth = 100;
};
closed = 0;
nodes = (
(500,600,l),
(500,-300,l)
);
}
);
width = 1000;
}
);
unicode = 968;
},
{
glyphname = omega;
lastChange = "2023-12-02 17:56:22 +0000";
layers = (
{
layerId = m01;
shapes = (
{
attr = {
lineCapEnd = 1;
lineCapStart = 1;
strokeWidth = 100;
};
closed = 0;
nodes = (
(164,530,l),
(120,478,o),
(100,421,o),
(100,294,c),
(100,190,l),
(100,85,o),
(185,0,o),
(290,0,c),
(395,0,o),
(480,85,o),
(480,190,c)
);
},
{
attr = {
lineCapEnd = 1;
lineCapStart = 1;
strokeWidth = 100;
};
closed = 0;
nodes = (
(797,530,l),
(841,478,o),
(860,421,o),
(860,294,c),
(860,190,l),
(860,85,o),
(775,0,o),
(670,0,c),
(565,0,o),
(480,85,o),
(480,190,c)
);
},
{
attr = {
lineCapEnd = 1;
lineCapStart = 1;
strokeWidth = 100;
};
closed = 0;
nodes = (
(480,410,l),
(480,190,l)
);
}
);
width = 960;
}
);
unicode = 969;
},
{
glyphname = zero;
kernLeft = uppercaseRound;
kernRight = uppercaseRound;
lastChange = "2023-12-12 19:43:46 +0000";
layers = (
{
layerId = m01;
shapes = (
{
attr = {
strokeWidth = 100;
};
closed = 0;
nodes = (
(568,706,l),
(162,94,l)
);
},
{
attr = {
strokeWidth = 100;
};
closed = 1;
nodes = (
(630,119,o),
(511,0,o),
(365,0,c),
(219,0,o),
(100,119,o),
(100,265,c),
(100,535,l),
(100,681,o),
(219,800,o),
(365,800,c),
(511,800,o),
(630,681,o),
(630,535,c),
(630,265,l)
);
}
);
width = 730;
}
);
unicode = 48;
},
{
glyphname = one;
lastChange = "2023-12-12 17:07:40 +0000";
layers = (
{
layerId = m01;
shapes = (
{
attr = {
lineCapEnd = 1;
lineCapStart = 1;
strokeWidth = 100;
};
closed = 0;
nodes = (
(300,800,l),
(300,0,l)
);
},
{
attr = {
lineCapEnd = 1;
lineCapStart = 1;
strokeWidth = 100;
};
closed = 0;
nodes = (
(100,691,l),
(300,800,l)
);
}
);
width = 400;
}
);
unicode = 49;
},
{
glyphname = two;
lastChange = "2023-12-12 17:06:26 +0000";
layers = (
{
layerId = m01;
shapes = (
{
attr = {
lineCapEnd = 1;
lineCapStart = 1;
strokeWidth = 100;
};
closed = 0;
nodes = (
(100,0,l),
(100,0,o),
(446,254,o),
(553,348,c),
(604,392,o),
(630,462,o),
(630,535,c),
(630,535,l),
(630,681,o),
(512,800,o),
(365,800,c),
(219,800,o),
(100,681,o),
(100,535,c)
);
},
{
attr = {
lineCapEnd = 1;
lineCapStart = 1;
strokeWidth = 100;
};
closed = 0;
nodes = (
(630,0,l),
(100,0,l)
);
}
);
width = 730;
}
);
unicode = 50;
},
{
glyphname = three;
lastChange = "2023-12-12 17:07:05 +0000";
layers = (
{
layerId = m01;
shapes = (
{
attr = {
lineCapEnd = 1;
lineCapStart = 1;
strokeWidth = 100;
};
closed = 0;
nodes = (
(100,733,l),
(156,779,o),
(215,800,o),
(349,800,c),
(380,800,l),
(491,800,o),
(580,710,o),
(580,600,c),
(580,490,o),
(491,400,o),
(380,400,c)
);
},
{
attr = {
lineCapEnd = 1;
lineCapStart = 1;
strokeWidth = 100;
};
closed = 0;
nodes = (
(100,67,l),
(156,21,o),
(215,0,o),
(349,0,c),
(380,0,l),
(491,0,o),
(580,90,o),
(580,200,c),
(580,310,o),
(491,400,o),
(380,400,c)
);
},
{
attr = {
lineCapEnd = 1;
lineCapStart = 1;
strokeWidth = 100;
};
closed = 0;
nodes = (
(227,400,l),
(381,400,l)
);
}
);
width = 680;
}
);
unicode = 51;
},
{
glyphname = four;
lastChange = "2023-12-12 17:06:38 +0000";
layers = (
{
layerId = m01;
shapes = (
{
attr = {
lineCapEnd = 1;
lineCapStart = 1;
strokeWidth = 100;
};
closed = 0;
nodes = (
(529,800,l),
(100,263,l)
);
},
{
attr = {
lineCapEnd = 1;
lineCapStart = 1;
strokeWidth = 100;
};
closed = 0;
nodes = (
(100,263,l),
(630,263,l)
);
},
{
attr = {
lineCapEnd = 1;
lineCapStart = 1;
strokeWidth = 100;
};
closed = 0;
nodes = (
(529,0,l),
(529,800,l)
);
}
);
width = 720;
}
);
unicode = 52;
},
{
glyphname = five;
lastChange = "2023-12-13 07:40:39 +0000";
layers = (
{
layerId = m01;
shapes = (
{
attr = {
lineCapEnd = 1;
lineCapStart = 1;
strokeWidth = 100;
};
closed = 0;
nodes = (
(100,67,l),
(156,21,o),
(209,0,o),
(343,0,c),
(365,0,l),
(490,0,o),
(590,101,o),
(590,225,c),
(590,349,o),
(490,450,o),
(365,450,c),
(100,450,l)
);
},
{
attr = {
lineCapEnd = 1;
lineCapStart = 1;
strokeWidth = 100;
};
closed = 0;
nodes = (
(100,800,l),
(590,800,l)
);
},
{
attr = {
lineCapEnd = 1;
lineCapStart = 1;
strokeWidth = 100;
};
closed = 0;
nodes = (
(100,450,l),
(100,800,l)
);
}
);
width = 690;
}
);
unicode = 53;
},
{
glyphname = six;
lastChange = "2023-12-12 17:06:42 +0000";
layers = (
{
layerId = m01;
shapes = (
{
attr = {
strokeWidth = 100;
};
closed = 1;
nodes = (
(630,119,o),
(512,0,o),
(365,0,c),
(219,0,o),
(100,119,o),
(100,265,c),
(100,411,o),
(219,530,o),
(365,530,c),
(512,530,o),
(630,411,o),
(630,265,c)
);
},
{
attr = {
lineCapEnd = 1;
lineCapStart = 1;
strokeWidth = 100;
};
closed = 0;
nodes = (
(607,702,l),
(563,760,o),
(496,800,o),
(384,800,c),
(365,800,l),
(219,800,o),
(100,681,o),
(100,535,c),
(100,265,l)
);
}
);
width = 730;
}
);
unicode = 54;
},
{
glyphname = seven;
lastChange = "2023-12-12 17:07:55 +0000";
layers = (
{
layerId = m01;
shapes = (
{
attr = {
lineCapEnd = 1;
lineCapStart = 1;
strokeWidth = 100;
};
closed = 0;
nodes = (
(630,800,l),
(100,800,l)
);
},
{
attr = {
lineCapEnd = 1;
lineCapStart = 1;
strokeWidth = 100;
};
closed = 0;
nodes = (
(200,0,l),
(630,800,l)
);
}
);
width = 710;
}
);
unicode = 55;
},
{
glyphname = eight;
lastChange = "2023-12-12 17:05:52 +0000";
layers = (
{
layerId = m01;
shapes = (
{
attr = {
lineCapEnd = 1;
lineCapStart = 1;
strokeWidth = 100;
};
closed = 0;
nodes = (
(430,400,l),
(541,400,o),
(630,310,o),
(630,200,c),
(630,90,o),
(541,0,o),
(430,0,c),
(300,0,l),
(190,0,o),
(100,90,o),
(100,200,c),
(100,310,o),
(190,400,o),
(300,400,c)
);
},
{
attr = {
lineCapEnd = 1;
lineCapStart = 1;
strokeWidth = 100;
};
closed = 0;
nodes = (
(300,400,l),
(190,400,o),
(100,490,o),
(100,600,c),
(100,710,o),
(190,800,o),
(300,800,c),
(430,800,l),
(541,800,o),
(630,710,o),
(630,600,c),
(630,490,o),
(541,400,o),
(430,400,c)
);
},
{
attr = {
lineCapEnd = 1;
lineCapStart = 1;
strokeWidth = 100;
};
closed = 0;
nodes = (
(300,400,l),
(430,400,l)
);
}
);
width = 730;
}
);
unicode = 56;
},
{
glyphname = nine;
lastChange = "2023-12-12 17:07:20 +0000";
layers = (
{
layerId = m01;
shapes = (
{
attr = {
strokeWidth = 100;
};
closed = 1;
nodes = (
(100,681,o),
(219,800,o),
(365,800,c),
(512,800,o),
(630,681,o),
(630,535,c),
(630,389,o),
(512,270,o),
(365,270,c),
(219,270,o),
(100,389,o),
(100,535,c)
);
},
{
attr = {
lineCapEnd = 1;
lineCapStart = 1;
strokeWidth = 100;
};
closed = 0;
nodes = (
(124,98,l),
(168,40,o),
(235,0,o),
(347,0,c),
(365,0,l),
(512,0,o),
(630,119,o),
(630,265,c),
(630,535,l)
);
}
);
width = 730;
}
);
unicode = 57;
},
{
glyphname = period;
kernLeft = dot;
kernRight = dot;
lastChange = "2023-12-16 13:55:01 +0000";
layers = (
{
layerId = m01;
shapes = (
{
closed = 1;
nodes = (
(210,66,o),
(176,100,o),
(135,100,c),
(93,100,o),
(60,66,o),
(60,25,c),
(60,-16,o),
(93,-50,o),
(135,-50,c),
(176,-50,o),
(210,-16,o),
(210,25,c)
);
}
);
width = 270;
}
);
unicode = 46;
},
{
glyphname = comma;
kernLeft = dot;
kernRight = dot;
lastChange = "2023-12-16 13:55:09 +0000";
layers = (
{
layerId = m01;
shapes = (
{
attr = {
lineCapEnd = "1";
lineCapStart = "1";
strokeWidth = 100;
};
closed = 0;
nodes = (
(110,-149,l),
(160,-124,o),
(160,-75,o),
(160,-50,c),
(160,16,l)
);
},
{
closed = 1;
nodes = (
(210,67,o),
(177,100,o),
(135,100,c),
(94,100,o),
(60,67,o),
(60,25,c),
(60,-16,o),
(94,-50,o),
(135,-50,c),
(177,-50,o),
(210,-16,o),
(210,25,c)
);
}
);
width = 270;
}
);
unicode = 44;
},
{
glyphname = colon;
kernLeft = dot;
kernRight = dot;
lastChange = "2023-12-16 13:31:31 +0000";
layers = (
{
layerId = m01;
shapes = (
{
closed = 1;
nodes = (
(210,66,o),
(176,100,o),
(135,100,c),
(93,100,o),
(60,66,o),
(60,25,c),
(60,-16,o),
(93,-50,o),
(135,-50,c),
(176,-50,o),
(210,-16,o),
(210,25,c)
);
},
{
closed = 1;
nodes = (
(210,570,o),
(176,604,o),
(135,604,c),
(93,604,o),
(60,570,o),
(60,529,c),
(60,488,o),
(93,454,o),
(135,454,c),
(176,454,o),
(210,488,o),
(210,529,c)
);
}
);
width = 270;
}
);
unicode = 58;
},
{
glyphname = semicolon;
kernLeft = dot;
kernRight = dot;
lastChange = "2023-12-16 13:31:34 +0000";
layers = (
{
layerId = m01;
shapes = (
{
attr = {
lineCapEnd = 1;
lineCapStart = 1;
strokeWidth = 100;
};
closed = 0;
nodes = (
(110,-149,l),
(160,-124,o),
(160,-75,o),
(160,-50,c),
(160,16,l)
);
},
{
closed = 1;
nodes = (
(210,67,o),
(177,100,o),
(135,100,c),
(94,100,o),
(60,67,o),
(60,25,c),
(60,-16,o),
(94,-50,o),
(135,-50,c),
(177,-50,o),
(210,-16,o),
(210,25,c)
);
},
{
closed = 1;
nodes = (
(210,570,o),
(176,604,o),
(135,604,c),
(93,604,o),
(60,570,o),
(60,529,c),
(60,488,o),
(93,454,o),
(135,454,c),
(176,454,o),
(210,488,o),
(210,529,c)
);
}
);
width = 270;
}
);
unicode = 59;
},
{
glyphname = exclam;
lastChange = "2023-12-12 18:33:25 +0000";
layers = (
{
layerId = m01;
shapes = (
{
closed = 1;
nodes = (
(210,40,o),
(176,74,o),
(135,74,c),
(93,74,o),
(60,40,o),
(60,-1,c),
(60,-42,o),
(93,-76,o),
(135,-76,c),
(176,-76,o),
(210,-42,o),
(210,-1,c)
);
},
{
attr = {
lineCapEnd = 1;
lineCapStart = 1;
strokeWidth = 100;
};
closed = 0;
nodes = (
(135,799,l),
(135,204,l)
);
}
);
width = 270;
}
);
unicode = 33;
},
{
glyphname = question;
lastChange = "2023-12-12 19:36:58 +0000";
layers = (
{
layerId = m01;
shapes = (
{
attr = {
lineCapEnd = "1";
lineCapStart = "1";
strokeWidth = 100;
};
closed = 0;
nodes = (
(319,235,l),
(319,205,l)
);
},
{
closed = 1;
nodes = (
(395,41,o),
(361,75,o),
(320,75,c),
(278,75,o),
(245,41,o),
(245,0,c),
(245,-41,o),
(278,-75,o),
(320,-75,c),
(361,-75,o),
(395,-41,o),
(395,0,c)
);
},
{
attr = {
lineCapEnd = "1";
lineCapStart = "1";
strokeWidth = 100;
};
closed = 0;
nodes = (
(100,580,l),
(100,641,o),
(124,696,o),
(164,736,c),
(204,775,o),
(259,800,o),
(320,800,c),
(441,800,o),
(540,702,o),
(540,580,c),
(540,519,o),
(519,460,o),
(475,424,c),
(430,388,o),
(319,328,o),
(319,235,c)
);
}
);
width = 640;
}
);
unicode = 63;
},
{
glyphname = questiondown;
lastChange = "2023-12-12 18:42:15 +0000";
layers = (
{
layerId = m01;
shapes = (
{
attr = {
lineCapEnd = "1";
lineCapStart = "1";
strokeWidth = 100;
};
closed = 0;
nodes = (
(321,595,l),
(321,565,l)
);
},
{
closed = 1;
nodes = (
(245,759,o),
(279,725,o),
(320,725,c),
(362,725,o),
(395,759,o),
(395,800,c),
(395,841,o),
(362,875,o),
(320,875,c),
(279,875,o),
(245,841,o),
(245,800,c)
);
},
{
attr = {
lineCapEnd = "1";
lineCapStart = "1";
strokeWidth = 100;
};
closed = 0;
nodes = (
(540,220,l),
(540,159,o),
(516,104,o),
(476,64,c),
(436,25,o),
(381,0,o),
(320,0,c),
(199,0,o),
(100,98,o),
(100,220,c),
(100,281,o),
(121,340,o),
(165,376,c),
(210,412,o),
(321,472,o),
(321,565,c)
);
}
);
width = 640;
}
);
unicode = 191;
},
{
glyphname = asterisk;
lastChange = "2023-12-16 13:43:29 +0000";
layers = (
{
layerId = m01;
shapes = (
{
attr = {
lineCapEnd = "1";
lineCapStart = "1";
strokeWidth = 100;
};
closed = 0;
nodes = (
(260,617,l),
(260,800,l)
);
},
{
attr = {
lineCapEnd = "1";
lineCapStart = "1";
strokeWidth = 100;
};
closed = 0;
nodes = (
(260,617,l),
(149,480,l)
);
},
{
attr = {
lineCapEnd = "1";
lineCapStart = "1";
strokeWidth = 100;
};
closed = 0;
nodes = (
(100,718,l),
(260,617,l)
);
},
{
attr = {
lineCapEnd = "1";
lineCapStart = "1";
strokeWidth = 100;
};
closed = 0;
nodes = (
(260,617,l),
(370,480,l)
);
},
{
attr = {
lineCapEnd = "1";
lineCapStart = "1";
strokeWidth = 100;
};
closed = 0;
nodes = (
(420,718,l),
(260,617,l)
);
}
);
width = 520;
}
);
unicode = 42;
},
{
glyphname = numbersign;
lastChange = "2023-12-12 18:59:45 +0000";
layers = (
{
layerId = m01;
shapes = (
{
attr = {
lineCapEnd = 1;
lineCapStart = 1;
strokeWidth = 100;
};
closed = 0;
nodes = (
(168,0,l),
(299,745,l)
);
},
{
attr = {
lineCapEnd = 1;
lineCapStart = 1;
strokeWidth = 100;
};
closed = 0;
nodes = (
(428,0,l),
(559,745,l)
);
},
{
attr = {
lineCapEnd = 1;
lineCapStart = 1;
strokeWidth = 100;
};
closed = 0;
nodes = (
(100,215,l),
(570,215,l)
);
},
{
attr = {
lineCapEnd = 1;
lineCapStart = 1;
strokeWidth = 100;
};
closed = 0;
nodes = (
(156,530,l),
(626,530,l)
);
}
);
width = 726;
}
);
unicode = 35;
},
{
glyphname = slash;
lastChange = "2023-12-12 18:37:02 +0000";
layers = (
{
layerId = m01;
shapes = (
{
attr = {
lineCapEnd = 1;
lineCapStart = 1;
strokeWidth = 100;
};
closed = 0;
nodes = (
(400,800,l),
(100,-215,l)
);
}
);
width = 500;
}
);
unicode = 47;
},
{
glyphname = backslash;
lastChange = "2023-12-12 18:37:16 +0000";
layers = (
{
layerId = m01;
shapes = (
{
attr = {
lineCapEnd = "1";
lineCapStart = "1";
strokeWidth = 100;
};
closed = 0;
nodes = (
(100,800,l),
(400,-215,l)
);
}
);
width = 500;
}
);
unicode = 92;
},
{
glyphname = ampersand.full;
lastChange = "2023-12-12 17:26:13 +0000";
layers = (
{
layerId = m01;
shapes = (
{
attr = {
lineCapEnd = 1;
lineCapStart = 1;
strokeWidth = 100;
};
closed = 0;
nodes = (
(785,0,l),
(718,0,l),
(673,0,o),
(631,21,o),
(605,58,c),
(327,439,l),
(292,486,o),
(229,548,o),
(229,639,c),
(229,725,o),
(299,800,o),
(396,800,c),
(491,800,o),
(558,725,o),
(558,639,c),
(558,548,o),
(484,469,o),
(348,444,c),
(195,415,o),
(100,331,o),
(100,193,c),
(100,82,o),
(170,0,o),
(311,0,c),
(495,0,o),
(604,175,o),
(764,390,c)
);
}
);
width = 885;
}
);
unicode = 65286;
},
{
glyphname = asterisk.full;
lastChange = "2023-12-12 18:49:29 +0000";
layers = (
{
layerId = m01;
shapes = (
{
attr = {
lineCapEnd = 1;
lineCapStart = 1;
strokeWidth = 100;
};
closed = 0;
nodes = (
(260,617,l),
(260,800,l)
);
},
{
attr = {
lineCapEnd = 1;
lineCapStart = 1;
strokeWidth = 100;
};
closed = 0;
nodes = (
(260,617,l),
(149,480,l)
);
},
{
attr = {
lineCapEnd = 1;
lineCapStart = 1;
strokeWidth = 100;
};
closed = 0;
nodes = (
(100,718,l),
(260,617,l)
);
},
{
attr = {
lineCapEnd = 1;
lineCapStart = 1;
strokeWidth = 100;
};
closed = 0;
nodes = (
(260,617,l),
(370,480,l)
);
},
{
attr = {
lineCapEnd = 1;
lineCapStart = 1;
strokeWidth = 100;
};
closed = 0;
nodes = (
(420,718,l),
(260,617,l)
);
}
);
width = 520;
}
);
unicode = 65290;
},
{
glyphname = at.full;
lastChange = "2023-12-12 18:45:05 +0000";
layers = (
{
layerId = m01;
shapes = (
{
attr = {
lineCapEnd = 1;
lineCapStart = 1;
strokeWidth = 100;
};
closed = 0;
nodes = (
(715,513,l),
(715,513,o),
(692,273,o),
(686,185,c),
(682,127,o),
(745,92,o),
(799,92,c),
(921,92,o),
(991,199,o),
(998,349,c),
(1014,656,o),
(826,800,o),
(570,800,c),
(324,800,o),
(126,609,o),
(102,349,c),
(83,132,o),
(201,-160,o),
(513,-160,c),
(624,-160,o),
(716,-146,o),
(787,-98,c)
);
},
{
attr = {
lineCapEnd = 1;
lineCapStart = 1;
strokeWidth = 100;
};
closed = 0;
nodes = (
(693,273,l),
(686,192,o),
(615,127,o),
(535,127,c),
(535,127,l),
(454,127,o),
(394,192,o),
(401,273,c),
(409,367,l),
(417,448,o),
(488,513,o),
(569,513,c),
(569,513,l),
(649,513,o),
(709,449,o),
(701,368,c)
);
}
);
width = 1099;
}
);
unicode = 65312;
},
{
glyphname = percent.full;
lastChange = "2023-12-12 17:25:11 +0000";
layers = (
{
layerId = m01;
shapes = (
{
attr = {
strokeWidth = 100;
};
closed = 1;
nodes = (
(100,567,o),
(167,500,o),
(250,500,c),
(333,500,o),
(400,567,o),
(400,650,c),
(400,733,o),
(333,800,o),
(250,800,c),
(167,800,o),
(100,733,o),
(100,650,c)
);
},
{
attr = {
strokeWidth = 100;
};
closed = 1;
nodes = (
(500,67,o),
(567,0,o),
(650,0,c),
(733,0,o),
(800,67,o),
(800,150,c),
(800,233,o),
(733,300,o),
(650,300,c),
(567,300,o),
(500,233,o),
(500,150,c)
);
},
{
attr = {
lineCapEnd = 1;
lineCapStart = 1;
strokeWidth = 100;
};
closed = 0;
nodes = (
(190,0,l),
(710,800,l)
);
}
);
width = 900;
}
);
unicode = 65285;
},
{
glyphname = question.full;
lastChange = "2023-12-12 18:33:04 +0000";
layers = (
{
layerId = m01;
shapes = (
{
attr = {
lineCapEnd = "1";
lineCapStart = "1";
strokeWidth = 100;
};
closed = 0;
nodes = (
(319,235,l),
(319,205,l)
);
},
{
closed = 1;
nodes = (
(395,41,o),
(361,75,o),
(320,75,c),
(278,75,o),
(245,41,o),
(245,0,c),
(245,-41,o),
(278,-75,o),
(320,-75,c),
(361,-75,o),
(395,-41,o),
(395,0,c)
);
},
{
attr = {
lineCapEnd = "1";
lineCapStart = "1";
strokeWidth = 100;
};
closed = 0;
nodes = (
(100,580,l),
(100,641,o),
(124,696,o),
(164,736,c),
(204,775,o),
(259,800,o),
(320,800,c),
(441,800,o),
(540,702,o),
(540,580,c),
(540,519,o),
(519,460,o),
(475,424,c),
(430,388,o),
(319,328,o),
(319,235,c)
);
}
);
width = 640;
}
);
unicode = 65311;
},
{
glyphname = parenright;
lastChange = "2023-12-12 19:39:38 +0000";
layers = (
{
layerId = m01;
shapes = (
{
attr = {
lineCapEnd = "1";
lineCapStart = "1";
strokeWidth = 100;
};
closed = 0;
nodes = (
(100,800,l),
(100,800,o),
(300,612,o),
(300,292,c),
(300,-28,o),
(100,-215,o),
(100,-215,c)
);
}
);
width = 400;
}
);
unicode = 41;
},
{
glyphname = braceleft;
lastChange = "2023-12-12 18:46:22 +0000";
layers = (
{
layerId = m01;
shapes = (
{
attr = {
lineCapEnd = 1;
lineCapStart = 1;
strokeWidth = 100;
};
closed = 0;
nodes = (
(420,800,l),
(331,800,o),
(260,728,o),
(260,640,c),
(260,453,l),
(260,364,o),
(188,293,o),
(100,293,c)
);
},
{
attr = {
lineCapEnd = 1;
lineCapStart = 1;
strokeWidth = 100;
};
closed = 0;
nodes = (
(100,293,l),
(188,293,o),
(260,221,o),
(260,133,c),
(260,-55,l),
(260,-143,o),
(331,-215,o),
(420,-215,c)
);
}
);
width = 520;
}
);
unicode = 123;
},
{
glyphname = bracketleft;
lastChange = "2023-12-12 18:47:31 +0000";
layers = (
{
layerId = m01;
shapes = (
{
attr = {
lineCapEnd = 1;
lineCapStart = 1;
strokeWidth = 100;
};
closed = 0;
nodes = (
(100,800,l),
(100,-160,l)
);
},
{
attr = {
lineCapEnd = 1;
lineCapStart = 1;
strokeWidth = 100;
};
closed = 0;
nodes = (
(100,-160,l),
(260,-160,l)
);
},
{
attr = {
lineCapEnd = 1;
lineCapStart = 1;
strokeWidth = 100;
};
closed = 0;
nodes = (
(260,800,l),
(100,800,l)
);
}
);
width = 360;
}
);
unicode = 91;
},
{
glyphname = quoteleft;
kernLeft = quote;
kernRight = quote;
lastChange = "2023-12-16 13:52:34 +0000";
layers = (
{
layerId = m01;
shapes = (
{
attr = {
lineCapEnd = "1";
lineCapStart = "1";
strokeWidth = 100;
};
closed = 0;
nodes = (
(80,580,l),
(140,800,l)
);
}
);
width = 220;
}
);
unicode = 8216;
},
{
glyphname = quotesingle;
kernLeft = quote;
kernRight = quote;
lastChange = "2023-12-17 15:39:39 +0000";
layers = (
{
layerId = m01;
shapes = (
{
attr = {
lineCapEnd = "1";
lineCapStart = "1";
strokeWidth = 100;
};
closed = 0;
nodes = (
(80,580,l),
(80,800,l)
);
}
);
width = 160;
}
);
unicode = 39;
},
{
glyphname = copyright;
lastChange = "2023-12-12 18:51:57 +0000";
layers = (
{
layerId = m01;
shapes = (
{
attr = {
lineCapEnd = 1;
lineCapStart = 1;
strokeWidth = 100;
};
closed = 0;
nodes = (
(627,280,l),
(601,236,o),
(554,207,o),
(500,207,c),
(500,207,l),
(419,207,o),
(354,272,o),
(354,353,c),
(354,447,l),
(354,528,o),
(419,593,o),
(500,593,c),
(500,593,l),
(554,593,o),
(601,564,o),
(626,520,c)
);
},
{
attr = {
strokeWidth = 100;
};
closed = 1;
nodes = (
(100,621,o),
(279,800,o),
(500,800,c),
(721,800,o),
(900,621,o),
(900,400,c),
(900,179,o),
(721,0,o),
(500,0,c),
(279,0,o),
(100,179,o),
(100,400,c)
);
}
);
width = 1000;
}
);
unicode = 169;
},
{
glyphname = registered;
lastChange = "2023-12-12 18:52:36 +0000";
layers = (
{
layerId = m01;
shapes = (
{
attr = {
lineCapEnd = 1;
lineCapStart = 1;
strokeWidth = 100;
};
closed = 0;
nodes = (
(372,593,l),
(498,593,l),
(570,593,o),
(628,535,o),
(628,463,c),
(628,392,o),
(570,334,o),
(498,334,c),
(372,334,l)
);
},
{
attr = {
lineCapEnd = 1;
lineCapStart = 1;
strokeWidth = 100;
};
closed = 0;
nodes = (
(498,334,l),
(625,207,l)
);
},
{
attr = {
strokeWidth = 100;
};
closed = 1;
nodes = (
(100,621,o),
(279,800,o),
(500,800,c),
(721,800,o),
(900,621,o),
(900,400,c),
(900,179,o),
(721,0,o),
(500,0,c),
(279,0,o),
(100,179,o),
(100,400,c)
);
},
{
attr = {
lineCapEnd = 1;
lineCapStart = 1;
strokeWidth = 100;
};
closed = 0;
nodes = (
(372,207,l),
(372,593,l)
);
}
);
width = 1000;
}
);
unicode = 174;
},
{
glyphname = trademark;
lastChange = "2023-12-12 18:53:14 +0000";
layers = (
{
layerId = m01;
shapes = (
{
attr = {
lineCapEnd = 1;
lineCapStart = 1;
strokeWidth = 100;
};
closed = 0;
nodes = (
(451,800,l),
(625,500,l)
);
},
{
attr = {
lineCapEnd = 1;
lineCapStart = 1;
strokeWidth = 100;
};
closed = 0;
nodes = (
(100,800,l),
(331,800,l)
);
},
{
attr = {
lineCapEnd = 1;
lineCapStart = 1;
strokeWidth = 100;
};
closed = 0;
nodes = (
(215,500,l),
(215,800,l)
);
},
{
attr = {
lineCapEnd = 1;
lineCapStart = 1;
strokeWidth = 100;
};
closed = 0;
nodes = (
(800,800,l),
(800,500,l)
);
},
{
attr = {
lineCapEnd = 1;
lineCapStart = 1;
strokeWidth = 100;
};
closed = 0;
nodes = (
(451,500,l),
(451,800,l)
);
},
{
attr = {
lineCapEnd = 1;
lineCapStart = 1;
strokeWidth = 100;
};
closed = 0;
nodes = (
(625,500,l),
(800,800,l)
);
}
);
width = 900;
}
);
unicode = 8482;
},
{
glyphname = dollar;
lastChange = "2023-12-12 18:58:52 +0000";
layers = (
{
layerId = m01;
shapes = (
{
attr = {
lineCapEnd = 1;
lineCapStart = 1;
strokeWidth = 100;
};
closed = 0;
nodes = (
(115,137,l),
(165,73,o),
(226,50,o),
(312,50,c),
(430,50,l),
(540,50,o),
(630,139,o),
(630,250,c),
(630,250,l),
(630,360,o),
(540,450,o),
(430,450,c),
(299,450,l),
(189,450,o),
(100,539,o),
(100,650,c),
(100,650,l),
(100,760,o),
(189,850,o),
(299,850,c),
(418,850,l),
(503,850,o),
(565,826,o),
(614,762,c)
);
},
{
attr = {
lineCapEnd = 1;
lineCapStart = 1;
strokeWidth = 100;
};
closed = 0;
nodes = (
(365,-50,l),
(365,950,l)
);
}
);
width = 730;
}
);
unicode = 36;
},
{
glyphname = euro;
lastChange = "2023-12-12 18:58:10 +0000";
layers = (
{
layerId = m01;
shapes = (
{
attr = {
lineCapEnd = 1;
lineCapStart = 1;
strokeWidth = 100;
};
closed = 0;
nodes = (
(673,96,l),
(624,37,o),
(550,0,o),
(468,0,c),
(468,0,l),
(320,0,o),
(200,120,o),
(200,268,c),
(200,532,l),
(200,680,o),
(320,800,o),
(468,800,c),
(468,800,l),
(551,800,o),
(625,762,o),
(674,703,c)
);
},
{
attr = {
lineCapEnd = 1;
lineCapStart = 1;
strokeWidth = 100;
};
closed = 0;
nodes = (
(100,497,l),
(400,497,l)
);
},
{
attr = {
lineCapEnd = 1;
lineCapStart = 1;
strokeWidth = 100;
};
closed = 0;
nodes = (
(100,301,l),
(400,301,l)
);
}
);
width = 774;
}
);
unicode = 8364;
},
{
glyphname = sterling;
lastChange = "2023-12-12 18:57:04 +0000";
layers = (
{
layerId = m01;
shapes = (
{
attr = {
lineCapEnd = 1;
lineCapStart = 1;
strokeWidth = 100;
};
closed = 0;
nodes = (
(630,590,l),
(630,706,o),
(536,800,o),
(420,800,c),
(420,800,l),
(304,800,o),
(210,706,o),
(210,590,c),
(210,212,l),
(210,169,o),
(195,126,o),
(169,91,c),
(100,0,l)
);
},
{
attr = {
lineCapEnd = 1;
lineCapStart = 1;
strokeWidth = 100;
};
closed = 0;
nodes = (
(320,372,l),
(100,372,l)
);
},
{
attr = {
lineCapEnd = 1;
lineCapStart = 1;
strokeWidth = 100;
};
closed = 0;
nodes = (
(100,0,l),
(630,0,l)
);
}
);
width = 730;
}
);
unicode = 163;
},
{
glyphname = yen;
lastChange = "2023-12-12 18:57:25 +0000";
layers = (
{
layerId = m01;
shapes = (
{
attr = {
lineCapEnd = 1;
lineCapStart = 1;
strokeWidth = 100;
};
closed = 0;
nodes = (
(365,400,l),
(100,800,l)
);
},
{
attr = {
lineCapEnd = 1;
lineCapStart = 1;
strokeWidth = 100;
};
closed = 0;
nodes = (
(365,0,l),
(365,400,l)
);
},
{
attr = {
lineCapEnd = 1;
lineCapStart = 1;
strokeWidth = 100;
};
closed = 0;
nodes = (
(115,400,l),
(615,400,l)
);
},
{
attr = {
lineCapEnd = 1;
lineCapStart = 1;
strokeWidth = 100;
};
closed = 0;
nodes = (
(115,200,l),
(615,200,l)
);
},
{
attr = {
lineCapEnd = 1;
lineCapStart = 1;
strokeWidth = 100;
};
closed = 0;
nodes = (
(630,800,l),
(365,400,l)
);
}
);
width = 730;
}
);
unicode = 165;
},
{
glyphname = rightArrow;
lastChange = "2023-12-12 18:56:25 +0000";
layers = (
{
layerId = m01;
shapes = (
{
attr = {
lineCapEnd = 1;
lineCapStart = 1;
strokeWidth = 100;
};
closed = 0;
nodes = (
(535,0,l),
(800,265,l)
);
},
{
attr = {
lineCapEnd = 1;
lineCapStart = 1;
strokeWidth = 100;
};
closed = 0;
nodes = (
(800,265,l),
(100,265,l)
);
},
{
attr = {
lineCapEnd = 1;
lineCapStart = 1;
strokeWidth = 100;
};
closed = 0;
nodes = (
(800,265,l),
(535,530,l)
);
}
);
width = 900;
}
);
unicode = 8594;
},
{
glyphname = leftRightArrow;
lastChange = "2023-12-12 18:56:21 +0000";
layers = (
{
layerId = m01;
shapes = (
{
attr = {
lineCapEnd = 1;
lineCapStart = 1;
strokeWidth = 100;
};
closed = 0;
nodes = (
(595,0,l),
(860,265,l)
);
},
{
attr = {
lineCapEnd = 1;
lineCapStart = 1;
strokeWidth = 100;
};
closed = 0;
nodes = (
(860,265,l),
(100,265,l)
);
},
{
attr = {
lineCapEnd = 1;
lineCapStart = 1;
strokeWidth = 100;
};
closed = 0;
nodes = (
(860,265,l),
(595,530,l)
);
},
{
attr = {
lineCapEnd = 1;
lineCapStart = 1;
strokeWidth = 100;
};
closed = 0;
nodes = (
(365,530,l),
(100,265,l)
);
},
{
attr = {
lineCapEnd = 1;
lineCapStart = 1;
strokeWidth = 100;
};
closed = 0;
nodes = (
(100,265,l),
(365,0,l)
);
}
);
width = 960;
}
);
unicode = 8596;
},
{
glyphname = "brevecomb-cy";
lastChange = "2023-11-29 18:35:40 +0000";
layers = (
{
anchors = (
{
name = _top;
pos = (280,580);
},
{
name = top;
pos = (280,851);
}
);
layerId = m01;
shapes = (
{
attr = {
lineCapEnd = 1;
lineCapStart = 1;
strokeWidth = 100;
};
closed = 0;
nodes = (
(140,800,l),
(140,723,o),
(203,660,o),
(280,660,c),
(358,660,o),
(420,723,o),
(420,800,c)
);
}
);
width = 560;
}
);
},
{
glyphname = tonos.case;
lastChange = "2023-12-17 13:21:27 +0000";
layers = (
{
anchors = (
{
name = _topleft;
pos = (434,850);
}
);
layerId = m01;
shapes = (
{
attr = {
lineCapEnd = "1";
lineCapStart = "1";
strokeWidth = 100;
};
closed = 0;
nodes = (
(296,695,l),
(366,800,l)
);
}
);
width = 662;
}
);
},
{
glyphname = dieresistonos;
lastChange = "2023-12-17 16:01:10 +0000";
layers = (
{
anchors = (
{
name = _top;
pos = (278,580);
}
);
layerId = m01;
shapes = (
{
attr = {
lineCapEnd = "1";
lineCapStart = "1";
strokeWidth = 100;
};
closed = 0;
nodes = (
(265,695,l),
(313,817,l)
);
},
{
closed = 1;
nodes = (
(506,767,o),
(473,800,o),
(431,800,c),
(390,800,o),
(356,767,o),
(356,725,c),
(356,684,o),
(390,650,o),
(431,650,c),
(473,650,o),
(506,684,o),
(506,725,c)
);
},
{
closed = 1;
nodes = (
(200,767,o),
(167,800,o),
(125,800,c),
(84,800,o),
(50,767,o),
(50,725,c),
(50,684,o),
(84,650,o),
(125,650,c),
(167,650,o),
(200,684,o),
(200,725,c)
);
}
);
width = 556;
}
);
unicode = 901;
},
{
glyphname = dieresiscomb;
lastChange = "2023-12-12 19:48:39 +0000";
layers = (
{
anchors = (
{
name = _top;
pos = (280,580);
},
{
name = top;
pos = (280,800);
}
);
layerId = m01;
shapes = (
{
closed = 1;
nodes = (
(492,767,o),
(459,800,o),
(417,800,c),
(376,800,o),
(342,767,o),
(342,725,c),
(342,684,o),
(376,650,o),
(417,650,c),
(459,650,o),
(492,684,o),
(492,725,c)
);
},
{
closed = 1;
nodes = (
(217,767,o),
(184,800,o),
(142,800,c),
(101,800,o),
(67,767,o),
(67,725,c),
(67,684,o),
(101,650,o),
(142,650,c),
(184,650,o),
(217,684,o),
(217,725,c)
);
}
);
width = 560;
}
);
unicode = 776;
},
{
glyphname = dotaccentcomb;
lastChange = "2023-12-16 14:00:02 +0000";
layers = (
{
anchors = (
{
name = _top;
pos = (105,580);
},
{
name = top;
pos = (105,800);
}
);
layerId = m01;
shapes = (
{
closed = 1;
nodes = (
(180,767,o),
(147,800,o),
(105,800,c),
(64,800,o),
(30,767,o),
(30,725,c),
(30,684,o),
(64,650,o),
(105,650,c),
(147,650,o),
(180,684,o),
(180,725,c)
);
}
);
width = 210;
}
);
unicode = 775;
},
{
glyphname = gravecomb;
lastChange = "2023-11-29 18:28:23 +0000";
layers = (
{
anchors = (
{
name = _top;
pos = (280,580);
},
{
name = top;
pos = (280,795);
}
);
layerId = m01;
shapes = (
{
attr = {
lineCapEnd = 1;
lineCapStart = 1;
strokeWidth = 100;
};
closed = 0;
nodes = (
(350,695,l),
(210,745,l)
);
}
);
width = 560;
}
);
unicode = 768;
},
{
glyphname = acutecomb;
lastChange = "2023-12-02 13:08:48 +0000";
layers = (
{
anchors = (
{
name = _top;
pos = (362,580);
},
{
name = top;
pos = (362,795);
}
);
layerId = m01;
shapes = (
{
attr = {
lineCapEnd = "1";
lineCapStart = "1";
strokeWidth = 100;
};
closed = 0;
nodes = (
(296,695,l),
(436,745,l)
);
}
);
width = 732;
}
);
unicode = 769;
},
{
glyphname = hungarumlautcomb;
lastChange = "2023-12-16 14:01:06 +0000";
layers = (
{
anchors = (
{
name = _top;
pos = (426,580);
},
{
name = top;
pos = (426,850);
}
);
layerId = m01;
shapes = (
{
attr = {
lineCapEnd = "1";
lineCapStart = "1";
strokeWidth = 100;
};
closed = 0;
nodes = (
(296,695,l),
(366,800,l)
);
},
{
attr = {
lineCapEnd = "1";
lineCapStart = "1";
strokeWidth = 100;
};
closed = 0;
nodes = (
(486,695,l),
(556,800,l)
);
}
);
width = 852;
}
);
unicode = 779;
},
{
glyphname = caroncomb.alt;
lastChange = "2023-12-16 14:01:40 +0000";
layers = (
{
anchors = (
{
name = _topright;
pos = (296,580);
}
);
layerId = m01;
shapes = (
{
attr = {
lineCapEnd = "1";
lineCapStart = "1";
strokeWidth = 100;
};
closed = 0;
nodes = (
(296,695,l),
(366,800,l)
);
}
);
width = 662;
}
);
},
{
glyphname = circumflexcomb;
lastChange = "2023-11-29 18:30:06 +0000";
layers = (
{
anchors = (
{
name = _top;
pos = (280,580);
},
{
name = top;
pos = (280,795);
}
);
layerId = m01;
shapes = (
{
attr = {
lineCapEnd = 1;
lineCapStart = 1;
strokeWidth = 100;
};
closed = 0;
nodes = (
(190,695,l),
(280,745,l)
);
},
{
attr = {
lineCapEnd = 1;
lineCapStart = 1;
strokeWidth = 100;
};
closed = 0;
nodes = (
(280,745,l),
(370,695,l)
);
}
);
width = 530;
}
);
unicode = 770;
},
{
glyphname = caroncomb;
lastChange = "2023-12-01 15:21:38 +0000";
layers = (
{
layerId = m01;
shapes = (
{
attr = {
lineCapEnd = "1";
lineCapStart = "1";
strokeWidth = 100;
};
closed = 0;
nodes = (
(280,695,l),
(190,745,l)
);
},
{
attr = {
lineCapEnd = "1";
lineCapStart = "1";
strokeWidth = 100;
};
closed = 0;
nodes = (
(370,745,l),
(280,695,l)
);
}
);
width = 600;
}
);
unicode = 780;
},
{
glyphname = brevecomb;
lastChange = "2023-11-30 19:18:28 +0000";
layers = (
{
anchors = (
{
name = _top;
pos = (280,580);
},
{
name = top;
pos = (280,850);
}
);
layerId = m01;
shapes = (
{
attr = {
lineCapEnd = "1";
lineCapStart = "1";
strokeWidth = 100;
};
closed = 0;
nodes = (
(140,800,l),
(140,723,o),
(203,660,o),
(280,660,c),
(358,660,o),
(420,723,o),
(420,800,c)
);
}
);
width = 560;
}
);
unicode = 774;
},
{
glyphname = ringcomb;
lastChange = "2023-11-29 18:31:05 +0000";
layers = (
{
anchors = (
{
name = _top;
pos = (280,580);
},
{
name = top;
pos = (280,885);
}
);
layerId = m01;
shapes = (
{
attr = {
strokeWidth = 100;
};
closed = 1;
nodes = (
(370,795,o),
(330,835,o),
(280,835,c),
(231,835,o),
(190,795,o),
(190,745,c),
(190,695,o),
(231,655,o),
(280,655,c),
(330,655,o),
(370,695,o),
(370,745,c)
);
}
);
width = 560;
}
);
unicode = 778;
},
{
glyphname = tildecomb;
lastChange = "2023-11-29 18:31:38 +0000";
layers = (
{
anchors = (
{
name = _top;
pos = (280,580);
},
{
name = top;
pos = (280,845);
}
);
layerId = m01;
shapes = (
{
attr = {
lineCapEnd = 1;
lineCapStart = 1;
strokeWidth = 100;
};
closed = 0;
nodes = (
(480,795,l),
(480,740,o),
(435,695,o),
(380,695,c),
(318,695,o),
(299,727,o),
(280,745,c),
(261,763,o),
(243,795,o),
(181,795,c),
(125,795,o),
(80,750,o),
(80,695,c)
);
}
);
width = 560;
}
);
unicode = 771;
},
{
glyphname = macroncomb;
lastChange = "2023-12-01 16:19:55 +0000";
layers = (
{
layerId = m01;
shapes = (
{
attr = {
lineCapEnd = 1;
lineCapStart = 1;
strokeWidth = 100;
};
closed = 0;
nodes = (
(180,744,l),
(480,744,l)
);
}
);
width = 660;
}
);
unicode = 772;
},
{
glyphname = commaaccentcomb;
lastChange = "2023-12-16 14:06:52 +0000";
layers = (
{
anchors = (
{
name = _bottom;
pos = (331,0);
},
{
name = bottom;
pos = (331,-304);
}
);
layerId = m01;
shapes = (
{
attr = {
lineCapEnd = "1";
lineCapStart = "1";
strokeWidth = 100;
};
closed = 0;
nodes = (
(296,-254,l),
(366,-149,l)
);
}
);
width = 662;
}
);
unicode = 806;
},
{
glyphname = cedillacomb;
lastChange = "2023-11-29 18:33:10 +0000";
layers = (
{
anchors = (
{
name = _bottom;
pos = (229,0);
},
{
name = bottom;
pos = (207,-310);
}
);
layerId = m01;
shapes = (
{
attr = {
lineCapEnd = 1;
lineCapStart = 1;
strokeWidth = 100;
};
closed = 0;
nodes = (
(179,-110,l),
(229,-110,l),
(270,-110,o),
(304,-144,o),
(304,-185,c),
(304,-227,o),
(270,-260,o),
(229,-260,c),
(110,-260,l)
);
},
{
attr = {
lineCapEnd = 1;
lineCapStart = 1;
strokeWidth = 100;
};
closed = 0;
nodes = (
(229,0,l),
(179,-110,l)
);
}
);
width = 414;
}
);
unicode = 807;
},
{
glyphname = ogonekcomb;
lastChange = "2023-12-01 16:27:21 +0000";
layers = (
{
anchors = (
{
name = _ogonek;
pos = (350,50);
}
);
layerId = m01;
shapes = (
{
attr = {
lineCapEnd = 1;
lineCapStart = 1;
strokeWidth = 100.51;
};
closed = 0;
nodes = (
(300,0,l),
(218,-44,o),
(180,-108,o),
(180,-165,c),
(180,-215,o),
(215,-260,o),
(300,-260,c)
);
}
);
width = 480;
}
);
unicode = 808;
},
{
glyphname = dieresiscomb.case;
lastChange = "2023-11-29 18:51:20 +0000";
layers = (
{
anchors = (
{
name = _top;
pos = (280,851);
},
{
name = top;
pos = (280,1071);
}
);
layerId = m01;
shapes = (
{
closed = 1;
nodes = (
(492,1038,o),
(459,1071,o),
(417,1071,c),
(376,1071,o),
(342,1038,o),
(342,996,c),
(342,955,o),
(376,921,o),
(417,921,c),
(459,921,o),
(492,955,o),
(492,996,c)
);
},
{
closed = 1;
nodes = (
(217,1038,o),
(184,1071,o),
(142,1071,c),
(101,1071,o),
(67,1038,o),
(67,996,c),
(67,955,o),
(101,921,o),
(142,921,c),
(184,921,o),
(217,955,o),
(217,996,c)
);
}
);
width = 560;
}
);
},
{
glyphname = dotaccentcomb.case;
lastChange = "2023-11-29 18:52:04 +0000";
layers = (
{
anchors = (
{
name = _top;
pos = (105,851);
},
{
name = top;
pos = (105,1071);
}
);
layerId = m01;
shapes = (
{
closed = 1;
nodes = (
(180,1038,o),
(147,1071,o),
(105,1071,c),
(64,1071,o),
(30,1038,o),
(30,996,c),
(30,955,o),
(64,921,o),
(105,921,c),
(147,921,o),
(180,955,o),
(180,996,c)
);
}
);
width = 183;
}
);
},
{
glyphname = gravecomb.case;
lastChange = "2023-11-29 18:52:27 +0000";
layers = (
{
anchors = (
{
name = _top;
pos = (280,851);
},
{
name = top;
pos = (280,1066);
}
);
layerId = m01;
shapes = (
{
attr = {
lineCapEnd = 1;
lineCapStart = 1;
strokeWidth = 100;
};
closed = 0;
nodes = (
(350,966,l),
(210,1016,l)
);
}
);
width = 560;
}
);
},
{
glyphname = acutecomb.case;
lastChange = "2023-12-02 13:11:46 +0000";
layers = (
{
anchors = (
{
name = _top;
pos = (170,851);
},
{
name = top;
pos = (170,1066);
}
);
layerId = m01;
shapes = (
{
attr = {
lineCapEnd = "1";
lineCapStart = "1";
strokeWidth = 100;
};
closed = 0;
nodes = (
(100,966,l),
(240,1016,l)
);
}
);
width = 340;
}
);
},
{
glyphname = circumflexcomb.case;
lastChange = "2023-11-29 18:52:43 +0000";
layers = (
{
anchors = (
{
name = _top;
pos = (280,851);
},
{
name = top;
pos = (280,1066);
}
);
layerId = m01;
shapes = (
{
attr = {
lineCapEnd = 1;
lineCapStart = 1;
strokeWidth = 100;
};
closed = 0;
nodes = (
(190,966,l),
(280,1016,l)
);
},
{
attr = {
lineCapEnd = 1;
lineCapStart = 1;
strokeWidth = 100;
};
closed = 0;
nodes = (
(280,1016,l),
(370,966,l)
);
}
);
width = 530;
}
);
},
{
glyphname = caroncomb.case;
lastChange = "2023-12-02 12:06:21 +0000";
layers = (
{
anchors = (
{
name = _top;
pos = (280,851);
},
{
name = top;
pos = (280,1066);
}
);
layerId = m01;
shapes = (
{
attr = {
lineCapEnd = "1";
lineCapStart = "1";
strokeWidth = 100;
};
closed = 0;
nodes = (
(280,966,l),
(190,1016,l)
);
},
{
attr = {
lineCapEnd = "1";
lineCapStart = "1";
strokeWidth = 100;
};
closed = 0;
nodes = (
(370,1016,l),
(280,966,l)
);
}
);
width = 560;
}
);
},
{
glyphname = brevecomb.case;
lastChange = "2023-11-29 18:53:36 +0000";
layers = (
{
anchors = (
{
name = _top;
pos = (280,851);
},
{
name = top;
pos = (280,1122);
}
);
layerId = m01;
shapes = (
{
attr = {
lineCapEnd = "1";
lineCapStart = "1";
strokeWidth = 100;
};
closed = 0;
nodes = (
(140,1071,l),
(140,994,o),
(203,931,o),
(280,931,c),
(358,931,o),
(420,994,o),
(420,1071,c)
);
}
);
width = 600;
}
);
},
{
glyphname = ringcomb.case;
lastChange = "2023-11-29 18:52:56 +0000";
layers = (
{
anchors = (
{
name = _top;
pos = (280,851);
},
{
name = top;
pos = (280,1156);
}
);
layerId = m01;
shapes = (
{
attr = {
strokeWidth = 100;
};
closed = 1;
nodes = (
(370,1066,o),
(330,1106,o),
(280,1106,c),
(231,1106,o),
(190,1066,o),
(190,1016,c),
(190,966,o),
(231,926,o),
(280,926,c),
(330,926,o),
(370,966,o),
(370,1016,c)
);
}
);
width = 560;
}
);
},
{
glyphname = tildecomb.case;
lastChange = "2023-11-29 18:53:04 +0000";
layers = (
{
anchors = (
{
name = _top;
pos = (280,851);
},
{
name = top;
pos = (280,1116);
}
);
layerId = m01;
shapes = (
{
attr = {
lineCapEnd = 1;
lineCapStart = 1;
strokeWidth = 100;
};
closed = 0;
nodes = (
(480,1066,l),
(480,1011,o),
(435,966,o),
(380,966,c),
(318,966,o),
(299,998,o),
(280,1016,c),
(261,1034,o),
(243,1066,o),
(181,1066,c),
(125,1066,o),
(80,1021,o),
(80,966,c)
);
}
);
width = 560;
}
);
},
{
glyphname = macroncomb.case;
lastChange = "2023-12-02 12:10:19 +0000";
layers = (
{
anchors = (
{
name = _top;
pos = (340,851);
},
{
name = top;
pos = (340,1066);
}
);
layerId = m01;
shapes = (
{
attr = {
lineCapEnd = 1;
lineCapStart = 1;
strokeHeight = 100;
strokeWidth = 100;
};
closed = 0;
nodes = (
(190,1016,l),
(490,1016,l)
);
}
);
width = 680;
}
);
},
{
glyphname = cedillacomb.case;
lastChange = "2023-11-29 18:42:08 +0000";
layers = (
{
anchors = (
{
name = _bottom;
pos = (229,0);
},
{
name = bottom;
pos = (207,-310);
}
);
layerId = m01;
shapes = (
{
attr = {
lineCapEnd = 1;
lineCapStart = 1;
strokeWidth = 100;
};
closed = 0;
nodes = (
(179,-110,l),
(229,-110,l),
(270,-110,o),
(304,-144,o),
(304,-185,c),
(304,-227,o),
(270,-260,o),
(229,-260,c),
(110,-260,l)
);
},
{
attr = {
lineCapEnd = 1;
lineCapStart = 1;
strokeWidth = 100;
};
closed = 0;
nodes = (
(229,0,l),
(179,-110,l)
);
}
);
width = 414;
}
);
},
